<svg width="509" height="470" viewBox="0 0 509 470" fill="none" xmlns="http://www.w3.org/2000/svg">
<path d="M20 0C8.9543 0 0 8.95431 0 20V450C0 461.046 8.9543 470 20 470H488.015C499.06 470 508.015 461.046 508.015 450V20C508.015 8.9543 499.06 0 488.015 0H20ZM452.207 25.581C461.326 25.581 468.656 32.3853 468.656 40.7553C468.656 49.171 461.326 56.0189 452.207 56.0189C443.135 56.0189 435.757 49.1699 435.757 40.7553C435.78 32.4071 443.135 25.581 452.207 25.581ZM394.8 25.581C403.824 25.581 411.227 32.3853 411.227 40.7553C411.227 49.171 403.824 56.0189 394.8 56.0189C385.68 56.0189 378.35 49.1699 378.35 40.7553C378.375 32.4071 385.68 25.581 394.8 25.581ZM468.728 434.347H59.3112C48.2655 434.347 39.3112 425.393 39.3112 414.347V108.92C39.3112 97.8742 48.2655 88.9199 59.3112 88.9199H448.729C459.775 88.9199 468.729 97.8742 468.729 108.92V434.346C468.729 434.347 468.729 434.347 468.728 434.347Z" fill="#B9B9B9"/>
<path d="M254.019 423.346C343.762 423.346 416.434 350.652 416.434 260.955C416.434 171.258 343.762 98.4927 254.019 98.4927C164.3 98.4927 91.5811 171.257 91.5811 260.955C91.5811 350.677 164.3 423.346 254.019 423.346ZM159.75 199.535L192.618 166.657L254.019 228.101L315.397 166.657L348.193 199.535L286.839 260.931L348.217 322.279L315.373 355.157L254.019 293.785L192.618 355.181L159.75 322.304L221.128 260.955L159.75 199.535Z" fill="#B9B9B9"/>
</svg>
