<svg width="112" height="143" viewBox="0 0 112 143" fill="none" xmlns="http://www.w3.org/2000/svg">
<path fill-rule="evenodd" clip-rule="evenodd" d="M112 5.09091C112 2.28073 109.719 0 106.909 0H5.09091C2.28073 0 0 2.28073 0 5.09091V137.455C0 140.265 2.28073 142.545 5.09091 142.545H106.909C109.719 142.545 112 140.265 112 137.455V5.09091ZM101.818 10.1818V132.364H10.1818V10.1818H101.818ZM56 61.0909C39.144 61.0909 25.4545 74.7804 25.4545 91.6364C25.4545 108.492 39.144 122.182 56 122.182C72.856 122.182 86.5455 108.492 86.5455 91.6364C86.5455 74.7804 72.856 61.0909 56 61.0909ZM50.9091 71.9142C42.1324 74.1796 35.6364 82.1571 35.6364 91.6364C35.6364 102.877 44.7593 112 56 112C65.4793 112 73.4567 105.504 75.7222 96.7273H56C53.1898 96.7273 50.9091 94.4465 50.9091 91.6364V71.9142ZM40.7273 50.9091H71.2727C74.0829 50.9091 76.3636 48.6284 76.3636 45.8182C76.3636 43.008 74.0829 40.7273 71.2727 40.7273H40.7273C37.9171 40.7273 35.6364 43.008 35.6364 45.8182C35.6364 48.6284 37.9171 50.9091 40.7273 50.9091ZM30.5455 30.5455H81.4545C84.2647 30.5455 86.5455 28.2647 86.5455 25.4545C86.5455 22.6444 84.2647 20.3636 81.4545 20.3636H30.5455C27.7353 20.3636 25.4545 22.6444 25.4545 25.4545C25.4545 28.2647 27.7353 30.5455 30.5455 30.5455Z" fill="#FF785A"/>
</svg>
