<svg width="549" height="484" viewBox="0 0 549 484" fill="none" xmlns="http://www.w3.org/2000/svg">
<path d="M510 120V30C510 22.0434 506.838 14.4129 501.213 8.7867C495.588 3.1608 487.956 0 480 0H30C22.0434 0 14.4129 3.1608 8.7867 8.7867C3.1608 14.4129 0 22.0434 0 30V120C0 127.957 3.1608 135.587 8.7867 141.213C14.4129 146.839 22.0434 150 30 150C22.0434 150 14.4129 153.161 8.7867 158.787C3.1608 164.413 0 172.044 0 180V270C0 277.956 3.1608 285.588 8.7867 291.213C14.4129 296.838 22.0434 300 30 300C22.0434 300 14.4129 303.162 8.7867 308.787C3.1608 314.412 0 322.044 0 330V420C0 427.956 3.1608 435.588 8.7867 441.213C14.4129 446.838 22.0434 450 30 450H480C487.956 450 495.588 446.838 501.213 441.213C506.838 435.588 510 427.956 510 420V330C510 322.044 506.838 314.412 501.213 308.787C495.588 303.162 487.956 300 480 300C487.956 300 495.588 296.838 501.213 291.213C506.838 285.588 510 277.956 510 270V180C510 172.044 506.838 164.413 501.213 158.787C495.588 153.161 487.956 150 480 150C487.956 150 495.588 146.839 501.213 141.213C506.838 135.587 510 127.957 510 120ZM480 420H30V330H480V420ZM480 270H30V180H480V270ZM480 120H30V30H480V120Z" fill="#B9B9B9"/>
<path d="M82.5 97.5C94.9263 97.5 105 87.4263 105 75C105 62.5737 94.9263 52.5 82.5 52.5C70.0737 52.5 60 62.5737 60 75C60 87.4263 70.0737 97.5 82.5 97.5Z" fill="#CACACA"/>
<path d="M157.5 97.5C169.926 97.5 180 87.4263 180 75C180 62.5737 169.926 52.5 157.5 52.5C145.074 52.5 135 62.5737 135 75C135 87.4263 145.074 97.5 157.5 97.5Z" fill="#CACACA"/>
<path d="M82.5 247.5C94.9263 247.5 105 237.426 105 225C105 212.574 94.9263 202.5 82.5 202.5C70.0737 202.5 60 212.574 60 225C60 237.426 70.0737 247.5 82.5 247.5Z" fill="#CACACA"/>
<path d="M157.5 247.5C169.926 247.5 180 237.426 180 225C180 212.574 169.926 202.5 157.5 202.5C145.074 202.5 135 212.574 135 225C135 237.426 145.074 247.5 157.5 247.5Z" fill="#CACACA"/>
<path d="M82.5 397.5C94.9263 397.5 105 387.426 105 375C105 362.574 94.9263 352.5 82.5 352.5C70.0737 352.5 60 362.574 60 375C60 387.426 70.0737 397.5 82.5 397.5Z" fill="#CACACA"/>
<path d="M157.5 397.5C169.926 397.5 180 387.426 180 375C180 362.574 169.926 352.5 157.5 352.5C145.074 352.5 135 362.574 135 375C135 387.426 145.074 397.5 157.5 397.5Z" fill="#CACACA"/>
<path d="M542.677 458.061L457.392 311.359C450.279 304.214 438.739 304.214 431.627 311.359L346.334 458.061C339.222 465.199 339.222 476.786 346.334 483.938H542.67C549.796 476.786 549.796 465.199 542.677 458.061ZM436.654 364.021C436.654 358.348 441.232 353.756 446.873 353.756C452.514 353.756 457.092 358.348 457.092 364.021V411.928C457.092 417.594 452.514 422.193 446.873 422.193C441.232 422.193 436.654 417.594 436.654 411.928V364.021ZM446.934 456.467C441.294 456.467 436.716 451.881 436.716 446.201C436.716 440.534 441.294 435.935 446.934 435.935C452.575 435.935 457.153 440.534 457.153 446.201C457.153 451.881 452.575 456.467 446.934 456.467Z" fill="#FFD25A"/>
<rect x="436" y="364" width="22" height="48" fill="black"/>
<path d="M458 364C458 361.083 456.841 358.285 454.778 356.222C452.715 354.159 449.917 353 447 353C444.083 353 441.285 354.159 439.222 356.222C437.159 358.285 436 361.083 436 364L447 364H458Z" fill="black"/>
<path d="M458 412C458 414.917 456.841 417.715 454.778 419.778C452.715 421.841 449.917 423 447 423C444.083 423 441.285 421.841 439.222 419.778C437.159 417.715 436 414.917 436 412L447 412H458Z" fill="black"/>
<circle cx="11" cy="11" r="11" transform="matrix(1 0 0 -1 436 457)" fill="black"/>
</svg>
