<?xml version="1.0" standalone="no"?><svg xmlns:xlink="http://www.w3.org/1999/xlink" xmlns="http://www.w3.org/2000/svg" viewBox="0 0 1000 562.5010718389326" preserveAspectRatio="xMaxYMax slice"><g transform="scale(0.8574711460959339)"><rect x="0" y="0" width="1166.2222222222222" height="656" fill="#ffffff"/><rect x="0" y="0" width="72.88888888888889" height="72.88888888888889" fill="#ffffff"/><rect x="0" y="0" width="36.44" height="36.44" fill="#ffc085"/><polygon points="36.44,0 36.44,36.44 0,36.44" fill="#ffda77"/><rect x="36.44" y="0" width="36.44" height="36.44" fill="#ffd972"/><polygon points="36.44,0 72.88,0 36.44,36.44" fill="#fff3d5"/><rect x="0" y="36.44" width="36.44" height="36.44" fill="#fff2ce"/><polygon points="0,36.44 36.44,36.44 36.44,72.88" fill="#ffe8d1"/><rect x="36.44" y="36.44" width="36.44" height="36.44" fill="#fffcfa"/><polygon points="36.44,36.44 72.88,72.88 36.44,72.88" fill="#ffeede"/><rect x="72.89" y="0" width="72.89" height="72.89" fill="#ffc690"/><rect x="72.89" y="0" width="72.89" height="72.89" fill="#ffcd9e"/><rect x="145.77777777777777" y="0" width="72.88888888888889" height="72.88888888888889" fill="#ffffff"/><rect x="145.78" y="0" width="36.44" height="36.44" fill="#fff3d3"/><path d="M 145.78 0 A 36.44 36.44 0 0 1 182.22 36.44 L 145.78 36.44" fill="#ffe8d2"/><rect x="182.22" y="0" width="36.44" height="36.44" fill="#ffe397"/><path d="M 182.22 36.44 A 36.44 36.44 0 0 1  218.66 0 L 218.66 36.44" fill="#ffefe1"/><rect x="145.78" y="36.44" width="36.44" height="36.44" fill="#ffcc9c"/><path d="M 145.78 72.88 A 36.44 36.44 0 0 0 182.22 36.44 L 145.78 36.44" fill="#ffe9ad"/><rect x="182.22" y="36.44" width="36.44" height="36.44" fill="#ffe49b"/><path d="M 182.22 36.44 A 36.44 36.44 0 0 0 218.66 72.88 L 218.66 36.44" fill="#ffbd7f"/><rect x="218.67" y="0" width="72.89" height="72.89" fill="#ffae62"/><polygon points="218.67,0 291.56,0 218.67,72.89" fill="#fffcf9"/><rect x="291.55555555555554" y="0" width="72.88888888888889" height="72.88888888888889" fill="#ffffff"/><rect x="291.56" y="0" width="36.44" height="36.44" fill="#ffe398"/><path d="M 291.56 36.44 A 36.44 36.44 0 0 1  328 0 L 328 36.44" fill="#ffeab2"/><rect x="328" y="0" width="36.44" height="36.44" fill="#ffda77"/><path d="M 328 0 A 36.44 36.44 0 0 1 364.44 36.44 L 328 36.44" fill="#fff6df"/><rect x="291.56" y="36.44" width="36.44" height="36.44" fill="#fff7e2"/><path d="M 291.56 36.44 A 36.44 36.44 0 0 0 328 72.88 L 328 36.44" fill="#fff2d0"/><rect x="328" y="36.44" width="36.44" height="36.44" fill="#fff4d7"/><path d="M 328 72.88 A 36.44 36.44 0 0 0 364.44 36.44 L 328 36.44" fill="#fff7ef"/><rect x="364.44444444444446" y="0" width="72.88888888888889" height="72.88888888888889" fill="#ffffff"/><rect x="364.44" y="0" width="36.44" height="36.44" fill="#ffe08d"/><circle cx="382.65999999999997" cy="18.22" r="18.22" fill="#ffd76b"/><rect x="400.89" y="0" width="36.44" height="36.44" fill="#fff1cd"/><rect x="400.89" y="0" width="36.44" height="36.44" fill="#ffb875"/><rect x="364.44" y="36.44" width="36.44" height="36.44" fill="#ffebd9"/><circle cx="382.65999999999997" cy="54.66" r="18.22" fill="#fff2cf"/><rect x="400.89" y="36.44" width="36.44" height="36.44" fill="#ffc084"/><rect x="400.89" y="36.44" width="36.44" height="36.44" fill="#ffcc9d"/><rect x="437.3333333333333" y="0" width="72.88888888888889" height="72.88888888888889" fill="#ffffff"/><rect x="437.33" y="0" width="36.44" height="36.44" fill="#ffe398"/><path d="M 437.33 36.44 A 36.44 36.44 0 0 0 473.77 0 L 437.33 0" fill="#ffe9d5"/><rect x="473.78" y="0" width="36.44" height="36.44" fill="#ffebb4"/><path d="M 473.78 0 A 36.44 36.44 0 0 0 510.21999999999997 36.44 L 510.21999999999997 0" fill="#fff0c8"/><rect x="437.33" y="36.44" width="36.44" height="36.44" fill="#ffcb99"/><path d="M 437.33 36.44 A 36.44 36.44 0 0 1 473.77 72.88 L 437.33 72.88" fill="#fff5da"/><rect x="473.78" y="36.44" width="36.44" height="36.44" fill="#ffeede"/><path d="M 473.78 72.88 A 36.44 36.44 0 0 1  510.21999999999997 36.44 L 510.21999999999997 72.88" fill="#ffd871"/><rect x="510.2222222222222" y="0" width="72.88888888888889" height="72.88888888888889" fill="#ffffff"/><rect x="510.22" y="0" width="36.44" height="36.44" fill="#ffaf63"/><path d="M 510.22 0 A 36.44 36.44 0 0 0 546.6600000000001 36.44 L 546.6600000000001 0" fill="#fff2d0"/><rect x="546.67" y="0" width="36.44" height="36.44" fill="#ffad5f"/><path d="M 546.67 36.44 A 36.44 36.44 0 0 0 583.1099999999999 0 L 546.67 0" fill="#ffab5b"/><rect x="510.22" y="36.44" width="36.44" height="36.44" fill="#ffd3a9"/><path d="M 510.22 72.88 A 36.44 36.44 0 0 1  546.6600000000001 36.44 L 546.6600000000001 72.88" fill="#fff3d4"/><rect x="546.67" y="36.44" width="36.44" height="36.44" fill="#ffdd83"/><path d="M 546.67 36.44 A 36.44 36.44 0 0 1 583.1099999999999 72.88 L 546.67 72.88" fill="#ffe1c4"/><rect x="583.1111111111111" y="0" width="72.88888888888889" height="72.88888888888889" fill="#ffffff"/><rect x="583.11" y="0" width="36.44" height="36.44" fill="#ffe7cf"/><polygon points="619.55,0 619.55,36.44 583.11,36.44" fill="#ffe49d"/><rect x="619.56" y="0" width="36.44" height="36.44" fill="#fffefd"/><polygon points="619.56,0 656,0 619.56,36.44" fill="#fffdf9"/><rect x="583.11" y="36.44" width="36.44" height="36.44" fill="#ffcfa1"/><polygon points="583.11,36.44 619.55,36.44 619.55,72.88" fill="#ffdb7c"/><rect x="619.56" y="36.44" width="36.44" height="36.44" fill="#fffbf1"/><polygon points="619.56,36.44 656,72.88 619.56,72.88" fill="#ffe399"/><rect x="656" y="0" width="72.89" height="72.89" fill="#ffcc9c"/><rect x="656" y="0" width="72.89" height="72.89" fill="#ffc187"/><rect x="728.8888888888889" y="0" width="72.88888888888889" height="72.88888888888889" fill="#ffffff"/><rect x="728.89" y="0" width="36.44" height="36.44" fill="#ffe8d2"/><polygon points="765.3299999999999,0 765.3299999999999,36.44 728.89,36.44" fill="#ffdebf"/><rect x="765.33" y="0" width="36.44" height="36.44" fill="#ffc38b"/><polygon points="765.33,0 801.77,36.44 765.33,36.44" fill="#ffd76b"/><rect x="728.89" y="36.44" width="36.44" height="36.44" fill="#ffd1a6"/><polygon points="728.89,36.44 765.3299999999999,36.44 765.3299999999999,72.88" fill="#fffbf0"/><rect x="765.33" y="36.44" width="36.44" height="36.44" fill="#ffd0a4"/><polygon points="765.33,36.44 801.77,36.44 765.33,72.88" fill="#ffe3c9"/><rect x="801.78" y="0" width="72.89" height="72.89" fill="#ffb876"/><rect x="801.78" y="0" width="72.89" height="72.89" fill="#ffaa5b"/><rect x="874.67" y="0" width="72.89" height="72.89" fill="#ffefc5"/><path d="M 874.67 72.89 A 72.89 72.89 0 0 1  947.56 0 L 874.67 72.89 A 72.89 72.89 0 0 0 947.56 0" fill="#ffeddb"/><rect x="947.5555555555555" y="0" width="72.88888888888889" height="72.88888888888889" fill="#ffffff"/><rect x="947.56" y="0" width="36.44" height="36.44" fill="#fff5db"/><path d="M 947.56 36.44 A 36.44 36.44 0 0 1 984 0 L 984 9.11 A 27.33 27.33 0 0 0 956.67 36.44" fill="#ffc58e"/><rect x="984" y="0" width="36.44" height="36.44" fill="#fff1cb"/><path d="M 984 0 A 36.44 36.44 0 0 1 1020.44 36.44 L 1011.33 36.44 A 27.33 27.33 0 0 0 984 9.11" fill="#fffdfb"/><rect x="947.56" y="36.44" width="36.44" height="36.44" fill="#ffba78"/><path d="M 947.56 36.44 A 36.44 36.44 0 0 0 984 72.88 L 984 63.769999999999996 A 27.33 27.33 0 0 1 956.67 36.44" fill="#ffe49c"/><rect x="984" y="36.44" width="36.44" height="36.44" fill="#ffcfa1"/><path d="M 984 72.88 A 36.44 36.44 0 0 0 1020.44 36.44 L 1011.33 36.44 A 27.33 27.33 0 0 1 984 63.769999999999996" fill="#fff3d4"/><rect x="1020.44" y="0" width="72.89" height="72.89" fill="#fff3e7"/><rect x="1020.44" y="0" width="72.89" height="72.89" fill="#ffe7a7"/><rect x="1093.33" y="0" width="72.89" height="72.89" fill="#ffedbd"/><rect x="1093.33" y="0" width="72.89" height="72.89" fill="#ffeedd"/><rect x="0" y="72.89" width="72.89" height="72.89" fill="#ffe9b0"/><path d="M 0 145.78 A 72.89 72.89 0 0 1  72.89 72.89 L 0 145.78 A 72.89 72.89 0 0 0 72.89 72.89" fill="#fff6e0"/><rect x="72.89" y="72.89" width="72.89" height="72.89" fill="#ffb671"/><rect x="72.89" y="72.89" width="72.89" height="72.89" fill="#ffefdf"/><rect x="145.78" y="72.89" width="72.89" height="72.89" fill="#fff4d7"/><polygon points="218.67000000000002,72.89 218.67000000000002,145.78 145.78,145.78" fill="#fff1cd"/><rect x="218.67" y="72.89" width="72.89" height="72.89" fill="#ffb875"/><path d="M 218.67 72.89 A 72.89 72.89 0 0 0 291.56 145.78 L 291.56 72.89" fill="#fff7ef"/><rect x="291.56" y="72.89" width="72.89" height="72.89" fill="#fff9ea"/><rect x="291.56" y="72.89" width="72.89" height="72.89" fill="#ffd975"/><rect x="364.44" y="72.89" width="72.89" height="72.89" fill="#fff1e4"/><path d="M 364.44 145.78 A 72.89 72.89 0 0 1  437.33 72.89 L 437.33 145.78" fill="#ffb36b"/><rect x="437.33" y="72.89" width="72.89" height="72.89" fill="#fff9e8"/><path d="M 437.33 72.89 A 72.89 72.89 0 0 0 510.21999999999997 145.78 L 510.21999999999997 72.89" fill="#ffdbb9"/><rect x="510.2222222222222" y="72.88888888888889" width="72.88888888888889" height="72.88888888888889" fill="#ffffff"/><rect x="510.22" y="72.89" width="36.44" height="36.44" fill="#fff5d9"/><path d="M 510.22 109.33 A 36.44 36.44 0 0 1  546.6600000000001 72.89 L 546.6600000000001 109.33" fill="#ffbe81"/><rect x="546.67" y="72.89" width="36.44" height="36.44" fill="#ffdb7c"/><path d="M 546.67 72.89 A 36.44 36.44 0 0 1 583.1099999999999 109.33 L 546.67 109.33" fill="#ffc996"/><rect x="510.22" y="109.33" width="36.44" height="36.44" fill="#ffd6b0"/><path d="M 510.22 109.33 A 36.44 36.44 0 0 0 546.6600000000001 145.76999999999998 L 546.6600000000001 109.33" fill="#fff2d0"/><rect x="546.67" y="109.33" width="36.44" height="36.44" fill="#ffe9d4"/><path d="M 546.67 145.76999999999998 A 36.44 36.44 0 0 0 583.1099999999999 109.33 L 546.67 109.33" fill="#fffbef"/><rect x="583.1111111111111" y="72.88888888888889" width="72.88888888888889" height="72.88888888888889" fill="#ffffff"/><rect x="583.11" y="72.89" width="36.44" height="36.44" fill="#fff5eb"/><path d="M 583.11 109.33 A 36.44 36.44 0 0 1 619.55 72.89 L 619.55 82 A 27.33 27.33 0 0 0 592.22 109.33" fill="#ffe6a2"/><rect x="619.56" y="72.89" width="36.44" height="36.44" fill="#ffda78"/><path d="M 619.56 72.89 A 36.44 36.44 0 0 1 656 109.33 L 646.89 109.33 A 27.33 27.33 0 0 0 619.56 82" fill="#fff7e3"/><rect x="583.11" y="109.33" width="36.44" height="36.44" fill="#ffc997"/><path d="M 583.11 109.33 A 36.44 36.44 0 0 0 619.55 145.76999999999998 L 619.55 136.66 A 27.33 27.33 0 0 1 592.22 109.33" fill="#ffe296"/><rect x="619.56" y="109.33" width="36.44" height="36.44" fill="#ffefc3"/><path d="M 619.56 145.76999999999998 A 36.44 36.44 0 0 0 656 109.33 L 646.89 109.33 A 27.33 27.33 0 0 1 619.56 136.66" fill="#ffba79"/><rect x="656" y="72.88888888888889" width="72.88888888888889" height="72.88888888888889" fill="#ffffff"/><rect x="656" y="72.89" width="36.44" height="36.44" fill="#fff9e8"/><polygon points="692.44,72.89 692.44,109.33 656,109.33" fill="#ffb46e"/><rect x="692.44" y="72.89" width="36.44" height="36.44" fill="#ffb46d"/><polygon points="692.44,72.89 728.8800000000001,109.33 692.44,109.33" fill="#ffd86f"/><rect x="656" y="109.33" width="36.44" height="36.44" fill="#ffeec1"/><polygon points="656,109.33 692.44,109.33 692.44,145.76999999999998" fill="#ffe6ce"/><rect x="692.44" y="109.33" width="36.44" height="36.44" fill="#ffe192"/><polygon points="692.44,109.33 728.8800000000001,109.33 692.44,145.76999999999998" fill="#ffecdb"/><rect x="728.8888888888889" y="72.88888888888889" width="72.88888888888889" height="72.88888888888889" fill="#ffffff"/><rect x="728.89" y="72.89" width="36.44" height="36.44" fill="#fff3d3"/><path d="M 728.89 72.89 A 36.44 36.44 0 0 1 765.3299999999999 109.33 L 728.89 109.33" fill="#ffe192"/><rect x="765.33" y="72.89" width="36.44" height="36.44" fill="#ffd76d"/><path d="M 765.33 109.33 A 36.44 36.44 0 0 1  801.77 72.89 L 801.77 109.33" fill="#ffecdb"/><rect x="728.89" y="109.33" width="36.44" height="36.44" fill="#fff0c8"/><path d="M 728.89 145.76999999999998 A 36.44 36.44 0 0 0 765.3299999999999 109.33 L 728.89 109.33" fill="#ffbf83"/><rect x="765.33" y="109.33" width="36.44" height="36.44" fill="#ffe5a0"/><path d="M 765.33 109.33 A 36.44 36.44 0 0 0 801.77 145.76999999999998 L 801.77 109.33" fill="#ffb46e"/><rect x="801.78" y="72.89" width="72.89" height="72.89" fill="#fff2d0"/><path d="M 801.78 145.78 A 72.89 72.89 0 0 1  874.67 72.89 L 874.67 145.78" fill="#ffecda"/><rect x="874.67" y="72.89" width="72.89" height="72.89" fill="#ffb065"/><rect x="874.67" y="72.89" width="72.89" height="72.89" fill="#ffd460"/><rect x="947.5555555555555" y="72.88888888888889" width="72.88888888888889" height="72.88888888888889" fill="#ffffff"/><rect x="947.56" y="72.89" width="36.44" height="36.44" fill="#ffe6a2"/><polygon points="984,72.89 984,109.33 947.56,109.33" fill="#ffeddd"/><rect x="984" y="72.89" width="36.44" height="36.44" fill="#ffe9d4"/><polygon points="984,72.89 1020.44,109.33 984,109.33" fill="#fffbf2"/><rect x="947.56" y="109.33" width="36.44" height="36.44" fill="#ffe8ac"/><polygon points="947.56,109.33 984,109.33 984,145.76999999999998" fill="#ffc48c"/><rect x="984" y="109.33" width="36.44" height="36.44" fill="#ffc288"/><polygon points="984,109.33 1020.44,109.33 984,145.76999999999998" fill="#ffd0a3"/><rect x="1020.4444444444443" y="72.88888888888889" width="72.88888888888889" height="72.88888888888889" fill="#ffffff"/><rect x="1020.44" y="72.89" width="36.44" height="36.44" fill="#ffc289"/><path d="M 1020.44 109.33 A 36.44 36.44 0 0 1  1056.88 72.89 L 1056.88 109.33" fill="#ffe8ac"/><rect x="1056.89" y="72.89" width="36.44" height="36.44" fill="#ffb876"/><path d="M 1056.89 72.89 A 36.44 36.44 0 0 1 1093.3300000000002 109.33 L 1056.89 109.33" fill="#ffecdb"/><rect x="1020.44" y="109.33" width="36.44" height="36.44" fill="#ffecda"/><path d="M 1020.44 109.33 A 36.44 36.44 0 0 0 1056.88 145.76999999999998 L 1056.88 109.33" fill="#ffe1c6"/><rect x="1056.89" y="109.33" width="36.44" height="36.44" fill="#ffc48c"/><path d="M 1056.89 145.76999999999998 A 36.44 36.44 0 0 0 1093.3300000000002 109.33 L 1056.89 109.33" fill="#ffae62"/><rect x="1093.33" y="72.89" width="72.89" height="72.89" fill="#fff6e0"/><polygon points="1166.22,72.89 1166.22,145.78 1093.33,145.78" fill="#ffab5d"/><rect x="0" y="145.77777777777777" width="72.88888888888889" height="72.88888888888889" fill="#ffffff"/><rect x="0" y="145.78" width="36.44" height="36.44" fill="#fff3d3"/><polygon points="36.44,145.78 36.44,182.22 0,182.22" fill="#ffdf8b"/><rect x="36.44" y="145.78" width="36.44" height="36.44" fill="#ffc894"/><polygon points="36.44,145.78 72.88,145.78 36.44,182.22" fill="#ffe192"/><rect x="0" y="182.22" width="36.44" height="36.44" fill="#ffd974"/><polygon points="0,182.22 36.44,182.22 36.44,218.66" fill="#ffe6cf"/><rect x="36.44" y="182.22" width="36.44" height="36.44" fill="#ffeab2"/><polygon points="36.44,182.22 72.88,218.66 36.44,218.66" fill="#ffe6a3"/><rect x="72.88888888888889" y="145.77777777777777" width="72.88888888888889" height="72.88888888888889" fill="#ffffff"/><rect x="72.89" y="145.78" width="36.44" height="36.44" fill="#ffd1a5"/><path d="M 72.89 145.78 A 36.44 36.44 0 0 1 109.33 182.22 L 72.89 182.22" fill="#fff8e4"/><rect x="109.33" y="145.78" width="36.44" height="36.44" fill="#ffebb4"/><path d="M 109.33 182.22 A 36.44 36.44 0 0 1  145.76999999999998 145.78 L 145.76999999999998 182.22" fill="#ffac5e"/><rect x="72.89" y="182.22" width="36.44" height="36.44" fill="#ffbf83"/><path d="M 72.89 218.66 A 36.44 36.44 0 0 0 109.33 182.22 L 72.89 182.22" fill="#ffe3c9"/><rect x="109.33" y="182.22" width="36.44" height="36.44" fill="#ffe9ad"/><path d="M 109.33 182.22 A 36.44 36.44 0 0 0 145.76999999999998 218.66 L 145.76999999999998 182.22" fill="#ffdd83"/><rect x="145.77777777777777" y="145.77777777777777" width="72.88888888888889" height="72.88888888888889" fill="#ffffff"/><rect x="145.78" y="145.78" width="36.44" height="36.44" fill="#ffb56f"/><polygon points="182.22,145.78 182.22,182.22 145.78,182.22" fill="#ffecda"/><rect x="182.22" y="145.78" width="36.44" height="36.44" fill="#fff5ec"/><polygon points="182.22,145.78 218.66,182.22 182.22,182.22" fill="#ffe7d0"/><rect x="145.78" y="182.22" width="36.44" height="36.44" fill="#fffefb"/><polygon points="145.78,182.22 182.22,182.22 182.22,218.66" fill="#ffd0a4"/><rect x="182.22" y="182.22" width="36.44" height="36.44" fill="#ffca98"/><polygon points="182.22,182.22 218.66,182.22 182.22,218.66" fill="#ffc996"/><rect x="218.66666666666666" y="145.77777777777777" width="72.88888888888889" height="72.88888888888889" fill="#ffffff"/><rect x="218.67" y="145.78" width="36.44" height="36.44" fill="#ffbf82"/><path d="M 218.67 182.22 A 36.44 36.44 0 0 1  255.10999999999999 145.78 L 255.10999999999999 182.22" fill="#fff0e1"/><rect x="255.11" y="145.78" width="36.44" height="36.44" fill="#fff4e9"/><path d="M 255.11 145.78 A 36.44 36.44 0 0 1 291.55 182.22 L 255.11 182.22" fill="#fffaed"/><rect x="218.67" y="182.22" width="36.44" height="36.44" fill="#fffdf6"/><path d="M 218.67 182.22 A 36.44 36.44 0 0 0 255.10999999999999 218.66 L 255.10999999999999 182.22" fill="#ffca98"/><rect x="255.11" y="182.22" width="36.44" height="36.44" fill="#ffe5a1"/><path d="M 255.11 218.66 A 36.44 36.44 0 0 0 291.55 182.22 L 255.11 182.22" fill="#ffc085"/><rect x="291.56" y="145.78" width="72.89" height="72.89" fill="#ffad60"/><rect x="291.56" y="145.78" width="72.89" height="72.89" fill="#fff7e3"/><rect x="364.44" y="145.78" width="72.89" height="72.89" fill="#ffe192"/><polygon points="437.33,145.78 437.33,218.67000000000002 364.44,218.67000000000002" fill="#ffc996"/><rect x="437.3333333333333" y="145.77777777777777" width="72.88888888888889" height="72.88888888888889" fill="#ffffff"/><rect x="437.33" y="145.78" width="36.44" height="36.44" fill="#ffefc4"/><path d="M 437.33 145.78 A 36.44 36.44 0 0 1 473.77 182.22 L 437.33 182.22" fill="#ffeebf"/><rect x="473.78" y="145.78" width="36.44" height="36.44" fill="#fff0e2"/><path d="M 473.78 182.22 A 36.44 36.44 0 0 1  510.21999999999997 145.78 L 510.21999999999997 182.22" fill="#ffecda"/><rect x="437.33" y="182.22" width="36.44" height="36.44" fill="#ffb672"/><path d="M 437.33 218.66 A 36.44 36.44 0 0 0 473.77 182.22 L 437.33 182.22" fill="#ffe8ac"/><rect x="473.78" y="182.22" width="36.44" height="36.44" fill="#ffd25b"/><path d="M 473.78 182.22 A 36.44 36.44 0 0 0 510.21999999999997 218.66 L 510.21999999999997 182.22" fill="#ffbc7d"/><rect x="510.22" y="145.78" width="72.89" height="72.89" fill="#ffecbb"/><path d="M 510.22 145.78 A 72.89 72.89 0 0 1  583.11 218.67000000000002 L 510.22 145.78 A 72.89 72.89 0 0 0 583.11 218.67000000000002" fill="#fff1e3"/><rect x="583.1111111111111" y="145.77777777777777" width="72.88888888888889" height="72.88888888888889" fill="#ffffff"/><rect x="583.11" y="145.78" width="36.44" height="36.44" fill="#ffebb6"/><path d="M 583.11 182.22 A 36.44 36.44 0 0 1 619.55 145.78 L 619.55 154.89 A 27.33 27.33 0 0 0 592.22 182.22" fill="#fff2d0"/><rect x="619.56" y="145.78" width="36.44" height="36.44" fill="#fffcf3"/><path d="M 619.56 145.78 A 36.44 36.44 0 0 1 656 182.22 L 646.89 182.22 A 27.33 27.33 0 0 0 619.56 154.89" fill="#ffebb6"/><rect x="583.11" y="182.22" width="36.44" height="36.44" fill="#ffd35f"/><path d="M 583.11 182.22 A 36.44 36.44 0 0 0 619.55 218.66 L 619.55 209.55 A 27.33 27.33 0 0 1 592.22 182.22" fill="#ffe6a2"/><rect x="619.56" y="182.22" width="36.44" height="36.44" fill="#ffd9b6"/><path d="M 619.56 218.66 A 36.44 36.44 0 0 0 656 182.22 L 646.89 182.22 A 27.33 27.33 0 0 1 619.56 209.55" fill="#ffdb7b"/><rect x="656" y="145.77777777777777" width="72.88888888888889" height="72.88888888888889" fill="#ffffff"/><rect x="656" y="145.78" width="36.44" height="36.44" fill="#ffad60"/><polygon points="692.44,145.78 692.44,182.22 656,182.22" fill="#ffe7a8"/><rect x="692.44" y="145.78" width="36.44" height="36.44" fill="#ffc894"/><polygon points="692.44,145.78 728.8800000000001,182.22 692.44,182.22" fill="#fff7e0"/><rect x="656" y="182.22" width="36.44" height="36.44" fill="#fffdf8"/><polygon points="656,182.22 692.44,182.22 656,218.66" fill="#ffe6a2"/><rect x="692.44" y="182.22" width="36.44" height="36.44" fill="#fffcf8"/><polygon points="692.44,182.22 728.8800000000001,182.22 728.8800000000001,218.66" fill="#ffe192"/><rect x="728.8888888888889" y="145.77777777777777" width="72.88888888888889" height="72.88888888888889" fill="#ffffff"/><rect x="728.89" y="145.78" width="36.44" height="36.44" fill="#ffe49e"/><path d="M 728.89 182.22 A 36.44 36.44 0 0 0 765.3299999999999 145.78 L 728.89 145.78" fill="#ffdc7f"/><rect x="765.33" y="145.78" width="36.44" height="36.44" fill="#ffdab8"/><path d="M 765.33 145.78 A 36.44 36.44 0 0 0 801.77 182.22 L 801.77 145.78" fill="#ffe9d4"/><rect x="728.89" y="182.22" width="36.44" height="36.44" fill="#ffe6a4"/><path d="M 728.89 182.22 A 36.44 36.44 0 0 1 765.3299999999999 218.66 L 728.89 218.66" fill="#ffde86"/><rect x="765.33" y="182.22" width="36.44" height="36.44" fill="#ffc38a"/><path d="M 765.33 218.66 A 36.44 36.44 0 0 1  801.77 182.22 L 801.77 218.66" fill="#ffd462"/><rect x="801.7777777777777" y="145.77777777777777" width="72.88888888888889" height="72.88888888888889" fill="#ffffff"/><rect x="801.78" y="145.78" width="36.44" height="36.44" fill="#ffce9f"/><polygon points="838.22,145.78 838.22,182.22 801.78,182.22" fill="#ffdb7b"/><rect x="838.22" y="145.78" width="36.44" height="36.44" fill="#fff1cc"/><polygon points="838.22,145.78 874.6600000000001,182.22 838.22,182.22" fill="#ffeec1"/><rect x="801.78" y="182.22" width="36.44" height="36.44" fill="#ffdb7c"/><polygon points="801.78,182.22 838.22,182.22 838.22,218.66" fill="#ffd35c"/><rect x="838.22" y="182.22" width="36.44" height="36.44" fill="#fff0c9"/><polygon points="838.22,182.22 874.6600000000001,182.22 838.22,218.66" fill="#ffe6a4"/><rect x="874.67" y="145.78" width="72.89" height="72.89" fill="#fff9f4"/><polygon points="947.56,145.78 947.56,218.67000000000002 874.67,218.67000000000002" fill="#fff6de"/><rect x="947.56" y="145.78" width="72.89" height="72.89" fill="#ffe8d2"/><rect x="947.56" y="145.78" width="72.89" height="72.89" fill="#ffefc3"/><rect x="1020.44" y="145.78" width="72.89" height="72.89" fill="#fffdf6"/><polygon points="1020.44,145.78 1093.3300000000002,145.78 1093.3300000000002,218.67000000000002" fill="#fff4d5"/><rect x="1093.33" y="145.78" width="72.89" height="72.89" fill="#ffb56f"/><path d="M 1093.33 218.67000000000002 A 72.89 72.89 0 0 0 1166.22 145.78 L 1093.33 145.78" fill="#ffead7"/><rect x="0" y="218.66666666666666" width="72.88888888888889" height="72.88888888888889" fill="#ffffff"/><rect x="0" y="218.67" width="36.44" height="36.44" fill="#ffc997"/><path d="M 0 255.10999999999999 A 36.44 36.44 0 0 1 36.44 218.67 L 36.44 227.77999999999997 A 27.33 27.33 0 0 0 9.11 255.10999999999999" fill="#ffedbc"/><rect x="36.44" y="218.67" width="36.44" height="36.44" fill="#ffac5d"/><path d="M 36.44 218.67 A 36.44 36.44 0 0 1 72.88 255.10999999999999 L 63.769999999999996 255.10999999999999 A 27.33 27.33 0 0 0 36.44 227.77999999999997" fill="#ffbd7e"/><rect x="0" y="255.11" width="36.44" height="36.44" fill="#ffd871"/><path d="M 0 255.11 A 36.44 36.44 0 0 0 36.44 291.55 L 36.44 282.44 A 27.33 27.33 0 0 1 9.11 255.11" fill="#fff1cd"/><rect x="36.44" y="255.11" width="36.44" height="36.44" fill="#ffeec2"/><path d="M 36.44 291.55 A 36.44 36.44 0 0 0 72.88 255.11 L 63.769999999999996 255.11 A 27.33 27.33 0 0 1 36.44 282.44" fill="#ffe8d1"/><rect x="72.88888888888889" y="218.66666666666666" width="72.88888888888889" height="72.88888888888889" fill="#ffffff"/><rect x="72.89" y="218.67" width="36.44" height="36.44" fill="#ffe295"/><polygon points="109.33,218.67 109.33,255.10999999999999 72.89,255.10999999999999" fill="#ffbd7f"/><rect x="109.33" y="218.67" width="36.44" height="36.44" fill="#ffd4ab"/><polygon points="109.33,218.67 145.76999999999998,255.10999999999999 109.33,255.10999999999999" fill="#fff5eb"/><rect x="72.89" y="255.11" width="36.44" height="36.44" fill="#ffedbe"/><polygon points="72.89,255.11 109.33,255.11 109.33,291.55" fill="#ffcc9d"/><rect x="109.33" y="255.11" width="36.44" height="36.44" fill="#fffdfb"/><polygon points="109.33,255.11 145.76999999999998,255.11 109.33,291.55" fill="#ffe6a2"/><rect x="145.77777777777777" y="218.66666666666666" width="72.88888888888889" height="72.88888888888889" fill="#ffffff"/><rect x="145.78" y="218.67" width="36.44" height="36.44" fill="#ffc186"/><polygon points="182.22,218.67 182.22,255.10999999999999 145.78,255.10999999999999" fill="#ffecdb"/><rect x="182.22" y="218.67" width="36.44" height="36.44" fill="#ffdc80"/><polygon points="182.22,218.67 218.66,255.10999999999999 182.22,255.10999999999999" fill="#ffecb8"/><rect x="145.78" y="255.11" width="36.44" height="36.44" fill="#fffdf8"/><polygon points="145.78,255.11 182.22,255.11 182.22,291.55" fill="#ffddbe"/><rect x="182.22" y="255.11" width="36.44" height="36.44" fill="#ffe5a0"/><polygon points="182.22,255.11 218.66,255.11 182.22,291.55" fill="#ffd870"/><rect x="218.66666666666666" y="218.66666666666666" width="72.88888888888889" height="72.88888888888889" fill="#ffffff"/><rect x="218.67" y="218.67" width="36.44" height="36.44" fill="#ffe8d2"/><polygon points="255.10999999999999,218.67 255.10999999999999,255.10999999999999 218.67,255.10999999999999" fill="#fff9e9"/><rect x="255.11" y="218.67" width="36.44" height="36.44" fill="#fff4ea"/><polygon points="255.11,218.67 291.55,218.67 255.11,255.10999999999999" fill="#ffc58f"/><rect x="218.67" y="255.11" width="36.44" height="36.44" fill="#fff3e8"/><polygon points="218.67,255.11 255.10999999999999,255.11 255.10999999999999,291.55" fill="#ffdcbb"/><rect x="255.11" y="255.11" width="36.44" height="36.44" fill="#fffcf3"/><polygon points="255.11,255.11 291.55,291.55 255.11,291.55" fill="#fff8f1"/><rect x="291.56" y="218.67" width="72.89" height="72.89" fill="#ffae62"/><path d="M 291.56 218.67 A 72.89 72.89 0 0 1  364.45 291.56 L 291.56 218.67 A 72.89 72.89 0 0 0 364.45 291.56" fill="#ffac5f"/><rect x="364.44444444444446" y="218.66666666666666" width="72.88888888888889" height="72.88888888888889" fill="#ffffff"/><rect x="364.44" y="218.67" width="36.44" height="36.44" fill="#ffb976"/><polygon points="400.88,218.67 400.88,255.10999999999999 364.44,255.10999999999999" fill="#ffeab1"/><rect x="400.89" y="218.67" width="36.44" height="36.44" fill="#fffefa"/><polygon points="400.89,218.67 437.33,255.10999999999999 400.89,255.10999999999999" fill="#ffb978"/><rect x="364.44" y="255.11" width="36.44" height="36.44" fill="#fffffe"/><polygon points="364.44,255.11 400.88,255.11 364.44,291.55" fill="#ffb168"/><rect x="400.89" y="255.11" width="36.44" height="36.44" fill="#fff2e5"/><polygon points="400.89,255.11 437.33,255.11 437.33,291.55" fill="#fff6dd"/><rect x="437.3333333333333" y="218.66666666666666" width="72.88888888888889" height="72.88888888888889" fill="#ffffff"/><rect x="437.33" y="218.67" width="36.44" height="36.44" fill="#ffe49b"/><path d="M 437.33 218.67 A 36.44 36.44 0 0 1 473.77 255.10999999999999 L 437.33 255.10999999999999" fill="#ffcc9b"/><rect x="473.78" y="218.67" width="36.44" height="36.44" fill="#ffe7d1"/><path d="M 473.78 255.10999999999999 A 36.44 36.44 0 0 1  510.21999999999997 218.67 L 510.21999999999997 255.10999999999999" fill="#ffefe1"/><rect x="437.33" y="255.11" width="36.44" height="36.44" fill="#ffdd84"/><path d="M 437.33 291.55 A 36.44 36.44 0 0 0 473.77 255.11 L 437.33 255.11" fill="#ffd7b1"/><rect x="473.78" y="255.11" width="36.44" height="36.44" fill="#ffe2c7"/><path d="M 473.78 255.11 A 36.44 36.44 0 0 0 510.21999999999997 291.55 L 510.21999999999997 255.11" fill="#ffe4ca"/><rect x="510.2222222222222" y="218.66666666666666" width="72.88888888888889" height="72.88888888888889" fill="#ffffff"/><rect x="510.22" y="218.67" width="36.44" height="36.44" fill="#ffad5f"/><circle cx="528.44" cy="236.89" r="18.22" fill="#fffbf0"/><rect x="546.67" y="218.67" width="36.44" height="36.44" fill="#ffb46d"/><rect x="546.67" y="218.67" width="36.44" height="36.44" fill="#fff6dd"/><rect x="510.22" y="255.11" width="36.44" height="36.44" fill="#ffdf8a"/><circle cx="528.44" cy="273.33000000000004" r="18.22" fill="#ffdbb9"/><rect x="546.67" y="255.11" width="36.44" height="36.44" fill="#ffd0a5"/><rect x="546.67" y="255.11" width="36.44" height="36.44" fill="#ffdfc2"/><rect x="583.1111111111111" y="218.66666666666666" width="72.88888888888889" height="72.88888888888889" fill="#ffffff"/><rect x="583.11" y="218.67" width="36.44" height="36.44" fill="#ffdf88"/><path d="M 583.11 255.10999999999999 A 36.44 36.44 0 0 1 619.55 218.67 L 619.55 227.77999999999997 A 27.33 27.33 0 0 0 592.22 255.10999999999999" fill="#ffe2c6"/><rect x="619.56" y="218.67" width="36.44" height="36.44" fill="#ffdd81"/><path d="M 619.56 218.67 A 36.44 36.44 0 0 1 656 255.10999999999999 L 646.89 255.10999999999999 A 27.33 27.33 0 0 0 619.56 227.77999999999997" fill="#ffd76d"/><rect x="583.11" y="255.11" width="36.44" height="36.44" fill="#ffb876"/><path d="M 583.11 255.11 A 36.44 36.44 0 0 0 619.55 291.55 L 619.55 282.44 A 27.33 27.33 0 0 1 592.22 255.11" fill="#fff8f1"/><rect x="619.56" y="255.11" width="36.44" height="36.44" fill="#fff7ef"/><path d="M 619.56 291.55 A 36.44 36.44 0 0 0 656 255.11 L 646.89 255.11 A 27.33 27.33 0 0 1 619.56 282.44" fill="#ffab5c"/><rect x="656" y="218.67" width="72.89" height="72.89" fill="#ffd5ad"/><polygon points="656,218.67 728.89,218.67 656,291.56" fill="#ffc48d"/><rect x="728.8888888888889" y="218.66666666666666" width="72.88888888888889" height="72.88888888888889" fill="#ffffff"/><rect x="728.89" y="218.67" width="36.44" height="36.44" fill="#ffe9af"/><polygon points="765.3299999999999,218.67 765.3299999999999,255.10999999999999 728.89,255.10999999999999" fill="#fffaee"/><rect x="765.33" y="218.67" width="36.44" height="36.44" fill="#ffd35f"/><polygon points="765.33,218.67 801.77,255.10999999999999 765.33,255.10999999999999" fill="#ffd461"/><rect x="728.89" y="255.11" width="36.44" height="36.44" fill="#ffdf88"/><polygon points="728.89,255.11 765.3299999999999,255.11 728.89,291.55" fill="#ffeec1"/><rect x="765.33" y="255.11" width="36.44" height="36.44" fill="#fffcf4"/><polygon points="765.33,255.11 801.77,255.11 801.77,291.55" fill="#fff3e8"/><rect x="801.7777777777777" y="218.66666666666666" width="72.88888888888889" height="72.88888888888889" fill="#ffffff"/><rect x="801.78" y="218.67" width="36.44" height="36.44" fill="#ffe59f"/><path d="M 801.78 218.67 A 36.44 36.44 0 0 0 838.22 255.10999999999999 L 838.22 218.67" fill="#ffead5"/><rect x="838.22" y="218.67" width="36.44" height="36.44" fill="#ffdd84"/><path d="M 838.22 255.10999999999999 A 36.44 36.44 0 0 0 874.6600000000001 218.67 L 838.22 218.67" fill="#ffebd8"/><rect x="801.78" y="255.11" width="36.44" height="36.44" fill="#ffefe0"/><path d="M 801.78 291.55 A 36.44 36.44 0 0 1  838.22 255.11 L 838.22 291.55" fill="#ffe1c5"/><rect x="838.22" y="255.11" width="36.44" height="36.44" fill="#fff6dd"/><path d="M 838.22 255.11 A 36.44 36.44 0 0 1 874.6600000000001 291.55 L 838.22 291.55" fill="#ffd4ac"/><rect x="874.6666666666666" y="218.66666666666666" width="72.88888888888889" height="72.88888888888889" fill="#ffffff"/><rect x="874.67" y="218.67" width="36.44" height="36.44" fill="#ffda76"/><path d="M 874.67 218.67 A 36.44 36.44 0 0 0 911.1099999999999 255.10999999999999 L 911.1099999999999 218.67" fill="#ffad61"/><rect x="911.11" y="218.67" width="36.44" height="36.44" fill="#ffcd9e"/><path d="M 911.11 255.10999999999999 A 36.44 36.44 0 0 0 947.55 218.67 L 911.11 218.67" fill="#ffeab3"/><rect x="874.67" y="255.11" width="36.44" height="36.44" fill="#fff5dc"/><path d="M 874.67 291.55 A 36.44 36.44 0 0 1  911.1099999999999 255.11 L 911.1099999999999 291.55" fill="#ffbd80"/><rect x="911.11" y="255.11" width="36.44" height="36.44" fill="#ffe190"/><path d="M 911.11 255.11 A 36.44 36.44 0 0 1 947.55 291.55 L 911.11 291.55" fill="#ffad61"/><rect x="947.56" y="218.67" width="72.89" height="72.89" fill="#fff7e1"/><polygon points="947.56,218.67 1020.4499999999999,218.67 1020.4499999999999,291.56" fill="#ffe39a"/><rect x="1020.4444444444443" y="218.66666666666666" width="72.88888888888889" height="72.88888888888889" fill="#ffffff"/><rect x="1020.44" y="218.67" width="36.44" height="36.44" fill="#ffad60"/><path d="M 1020.44 218.67 A 36.44 36.44 0 0 0 1056.88 255.10999999999999 L 1056.88 218.67" fill="#ffcfa2"/><rect x="1056.89" y="218.67" width="36.44" height="36.44" fill="#fff5ec"/><path d="M 1056.89 255.10999999999999 A 36.44 36.44 0 0 0 1093.3300000000002 218.67 L 1056.89 218.67" fill="#ffdbb8"/><rect x="1020.44" y="255.11" width="36.44" height="36.44" fill="#ffb976"/><path d="M 1020.44 291.55 A 36.44 36.44 0 0 1  1056.88 255.11 L 1056.88 291.55" fill="#fff4d5"/><rect x="1056.89" y="255.11" width="36.44" height="36.44" fill="#fffaf5"/><path d="M 1056.89 255.11 A 36.44 36.44 0 0 1 1093.3300000000002 291.55 L 1056.89 291.55" fill="#ffe7a7"/><rect x="1093.33" y="218.67" width="72.89" height="72.89" fill="#fff3d3"/><rect x="1093.33" y="218.67" width="72.89" height="72.89" fill="#fffcf3"/><rect x="0" y="291.55555555555554" width="72.88888888888889" height="72.88888888888889" fill="#ffffff"/><rect x="0" y="291.56" width="36.44" height="36.44" fill="#ffedbb"/><path d="M 0 328 A 36.44 36.44 0 0 1  36.44 291.56 L 36.44 328" fill="#fffcf4"/><rect x="36.44" y="291.56" width="36.44" height="36.44" fill="#ffcfa1"/><path d="M 36.44 291.56 A 36.44 36.44 0 0 1 72.88 328 L 36.44 328" fill="#ffddbc"/><rect x="0" y="328" width="36.44" height="36.44" fill="#ffb065"/><path d="M 0 328 A 36.44 36.44 0 0 0 36.44 364.44 L 36.44 328" fill="#ffc58e"/><rect x="36.44" y="328" width="36.44" height="36.44" fill="#ffd0a4"/><path d="M 36.44 364.44 A 36.44 36.44 0 0 0 72.88 328 L 36.44 328" fill="#ffe8a9"/><rect x="72.88888888888889" y="291.55555555555554" width="72.88888888888889" height="72.88888888888889" fill="#ffffff"/><rect x="72.89" y="291.56" width="36.44" height="36.44" fill="#ffb36b"/><path d="M 72.89 328 A 36.44 36.44 0 0 1 109.33 291.56 L 109.33 300.67 A 27.33 27.33 0 0 0 82 328" fill="#ffb26a"/><rect x="109.33" y="291.56" width="36.44" height="36.44" fill="#ffc793"/><path d="M 109.33 291.56 A 36.44 36.44 0 0 1 145.76999999999998 328 L 136.66 328 A 27.33 27.33 0 0 0 109.33 300.67" fill="#ffecda"/><rect x="72.89" y="328" width="36.44" height="36.44" fill="#ffd6b0"/><path d="M 72.89 328 A 36.44 36.44 0 0 0 109.33 364.44 L 109.33 355.33 A 27.33 27.33 0 0 1 82 328" fill="#ffc997"/><rect x="109.33" y="328" width="36.44" height="36.44" fill="#ffac5f"/><path d="M 109.33 364.44 A 36.44 36.44 0 0 0 145.76999999999998 328 L 136.66 328 A 27.33 27.33 0 0 1 109.33 355.33" fill="#ffae62"/><rect x="145.77777777777777" y="291.55555555555554" width="72.88888888888889" height="72.88888888888889" fill="#ffffff"/><rect x="145.78" y="291.56" width="36.44" height="36.44" fill="#ffba78"/><polygon points="182.22,291.56 182.22,328 145.78,328" fill="#ffe49d"/><rect x="182.22" y="291.56" width="36.44" height="36.44" fill="#fffaed"/><polygon points="182.22,291.56 218.66,291.56 182.22,328" fill="#ffe7a7"/><rect x="145.78" y="328" width="36.44" height="36.44" fill="#ffe7d1"/><polygon points="145.78,328 182.22,328 182.22,364.44" fill="#ffc58e"/><rect x="182.22" y="328" width="36.44" height="36.44" fill="#ffdb7b"/><polygon points="182.22,328 218.66,364.44 182.22,364.44" fill="#ffdf89"/><rect x="218.66666666666666" y="291.55555555555554" width="72.88888888888889" height="72.88888888888889" fill="#ffffff"/><rect x="218.67" y="291.56" width="36.44" height="36.44" fill="#ffda78"/><polygon points="255.10999999999999,291.56 255.10999999999999,328 218.67,328" fill="#fff4e9"/><rect x="255.11" y="291.56" width="36.44" height="36.44" fill="#ffc691"/><polygon points="255.11,291.56 291.55,328 255.11,328" fill="#ffebd8"/><rect x="218.67" y="328" width="36.44" height="36.44" fill="#fff0c9"/><polygon points="218.67,328 255.10999999999999,328 218.67,364.44" fill="#ffecb8"/><rect x="255.11" y="328" width="36.44" height="36.44" fill="#ffe6a4"/><polygon points="255.11,328 291.55,328 291.55,364.44" fill="#ffebb6"/><rect x="291.55555555555554" y="291.55555555555554" width="72.88888888888889" height="72.88888888888889" fill="#ffffff"/><rect x="291.56" y="291.56" width="36.44" height="36.44" fill="#fff8e7"/><polygon points="328,291.56 328,328 291.56,328" fill="#ffe8aa"/><rect x="328" y="291.56" width="36.44" height="36.44" fill="#fffefd"/><polygon points="328,291.56 364.44,328 328,328" fill="#ffce9f"/><rect x="291.56" y="328" width="36.44" height="36.44" fill="#fffaee"/><polygon points="291.56,328 328,328 328,364.44" fill="#ffc58e"/><rect x="328" y="328" width="36.44" height="36.44" fill="#fff3e7"/><polygon points="328,328 364.44,328 328,364.44" fill="#ffac5e"/><rect x="364.44444444444446" y="291.55555555555554" width="72.88888888888889" height="72.88888888888889" fill="#ffffff"/><rect x="364.44" y="291.56" width="36.44" height="36.44" fill="#fffefd"/><path d="M 364.44 328 A 36.44 36.44 0 0 1 400.88 291.56 L 400.88 300.67 A 27.33 27.33 0 0 0 373.55 328" fill="#ffeab3"/><rect x="400.89" y="291.56" width="36.44" height="36.44" fill="#fffdf9"/><path d="M 400.89 291.56 A 36.44 36.44 0 0 1 437.33 328 L 428.21999999999997 328 A 27.33 27.33 0 0 0 400.89 300.67" fill="#ffedbd"/><rect x="364.44" y="328" width="36.44" height="36.44" fill="#ffe49c"/><path d="M 364.44 328 A 36.44 36.44 0 0 0 400.88 364.44 L 400.88 355.33 A 27.33 27.33 0 0 1 373.55 328" fill="#fff3d2"/><rect x="400.89" y="328" width="36.44" height="36.44" fill="#ffc187"/><path d="M 400.89 364.44 A 36.44 36.44 0 0 0 437.33 328 L 428.21999999999997 328 A 27.33 27.33 0 0 1 400.89 355.33" fill="#ffb36c"/><rect x="437.3333333333333" y="291.55555555555554" width="72.88888888888889" height="72.88888888888889" fill="#ffffff"/><rect x="437.33" y="291.56" width="36.44" height="36.44" fill="#ffc38b"/><path d="M 437.33 291.56 A 36.44 36.44 0 0 1 473.77 328 L 437.33 328" fill="#ffb26a"/><rect x="473.78" y="291.56" width="36.44" height="36.44" fill="#fff9e9"/><path d="M 473.78 328 A 36.44 36.44 0 0 1  510.21999999999997 291.56 L 510.21999999999997 328" fill="#ffedbf"/><rect x="437.33" y="328" width="36.44" height="36.44" fill="#ffaa5a"/><path d="M 437.33 364.44 A 36.44 36.44 0 0 0 473.77 328 L 437.33 328" fill="#ffb168"/><rect x="473.78" y="328" width="36.44" height="36.44" fill="#ffe296"/><path d="M 473.78 328 A 36.44 36.44 0 0 0 510.21999999999997 364.44 L 510.21999999999997 328" fill="#fff6ee"/><rect x="510.2222222222222" y="291.55555555555554" width="72.88888888888889" height="72.88888888888889" fill="#ffffff"/><rect x="510.22" y="291.56" width="36.44" height="36.44" fill="#fffdfb"/><polygon points="546.6600000000001,291.56 546.6600000000001,328 510.22,328" fill="#fffbf8"/><rect x="546.67" y="291.56" width="36.44" height="36.44" fill="#ffd86f"/><polygon points="546.67,291.56 583.1099999999999,328 546.67,328" fill="#ffd7b1"/><rect x="510.22" y="328" width="36.44" height="36.44" fill="#ffe9ad"/><polygon points="510.22,328 546.6600000000001,328 546.6600000000001,364.44" fill="#ffd0a3"/><rect x="546.67" y="328" width="36.44" height="36.44" fill="#ffddbd"/><polygon points="546.67,328 583.1099999999999,328 546.67,364.44" fill="#fff8e7"/><rect x="583.1111111111111" y="291.55555555555554" width="72.88888888888889" height="72.88888888888889" fill="#ffffff"/><rect x="583.11" y="291.56" width="36.44" height="36.44" fill="#ffe08e"/><polygon points="619.55,291.56 619.55,328 583.11,328" fill="#ffbe82"/><rect x="619.56" y="291.56" width="36.44" height="36.44" fill="#ffb46d"/><polygon points="619.56,291.56 656,328 619.56,328" fill="#fffbf1"/><rect x="583.11" y="328" width="36.44" height="36.44" fill="#fff4d5"/><polygon points="583.11,328 619.55,328 619.55,364.44" fill="#ffc38a"/><rect x="619.56" y="328" width="36.44" height="36.44" fill="#ffdebe"/><polygon points="619.56,328 656,328 619.56,364.44" fill="#ffde86"/><rect x="656" y="291.55555555555554" width="72.88888888888889" height="72.88888888888889" fill="#ffffff"/><rect x="656" y="291.56" width="36.44" height="36.44" fill="#ffdc7f"/><path d="M 656 291.56 A 36.44 36.44 0 0 1 692.44 328 L 656 328" fill="#ffd667"/><rect x="692.44" y="291.56" width="36.44" height="36.44" fill="#ffecdb"/><path d="M 692.44 328 A 36.44 36.44 0 0 1  728.8800000000001 291.56 L 728.8800000000001 328" fill="#ffebb7"/><rect x="656" y="328" width="36.44" height="36.44" fill="#fffaed"/><path d="M 656 364.44 A 36.44 36.44 0 0 0 692.44 328 L 656 328" fill="#ffb56f"/><rect x="692.44" y="328" width="36.44" height="36.44" fill="#fff0e2"/><path d="M 692.44 328 A 36.44 36.44 0 0 0 728.8800000000001 364.44 L 728.8800000000001 328" fill="#fffaeb"/><rect x="728.8888888888889" y="291.55555555555554" width="72.88888888888889" height="72.88888888888889" fill="#ffffff"/><rect x="728.89" y="291.56" width="36.44" height="36.44" fill="#fff8e7"/><path d="M 728.89 328 A 36.44 36.44 0 0 1 765.3299999999999 291.56 L 765.3299999999999 300.67 A 27.33 27.33 0 0 0 738 328" fill="#ffd667"/><rect x="765.33" y="291.56" width="36.44" height="36.44" fill="#fffcf4"/><path d="M 765.33 291.56 A 36.44 36.44 0 0 1 801.77 328 L 792.6600000000001 328 A 27.33 27.33 0 0 0 765.33 300.67" fill="#ffc894"/><rect x="728.89" y="328" width="36.44" height="36.44" fill="#ffe9ae"/><path d="M 728.89 328 A 36.44 36.44 0 0 0 765.3299999999999 364.44 L 765.3299999999999 355.33 A 27.33 27.33 0 0 1 738 328" fill="#ffdf8b"/><rect x="765.33" y="328" width="36.44" height="36.44" fill="#ffe293"/><path d="M 765.33 364.44 A 36.44 36.44 0 0 0 801.77 328 L 792.6600000000001 328 A 27.33 27.33 0 0 1 765.33 355.33" fill="#ffc691"/><rect x="801.78" y="291.56" width="72.89" height="72.89" fill="#ffdd82"/><rect x="801.78" y="291.56" width="72.89" height="72.89" fill="#ffd35d"/><rect x="874.67" y="291.56" width="72.89" height="72.89" fill="#ffdf8a"/><rect x="874.67" y="291.56" width="72.89" height="72.89" fill="#ffe9af"/><rect x="947.5555555555555" y="291.55555555555554" width="72.88888888888889" height="72.88888888888889" fill="#ffffff"/><rect x="947.56" y="291.56" width="36.44" height="36.44" fill="#fff3d1"/><circle cx="965.78" cy="309.78" r="18.22" fill="#ffe5a1"/><rect x="984" y="291.56" width="36.44" height="36.44" fill="#ffebb5"/><rect x="984" y="291.56" width="36.44" height="36.44" fill="#fff2cf"/><rect x="947.56" y="328" width="36.44" height="36.44" fill="#fffcf5"/><circle cx="965.78" cy="346.22" r="18.22" fill="#fffdf9"/><rect x="984" y="328" width="36.44" height="36.44" fill="#ffde86"/><rect x="984" y="328" width="36.44" height="36.44" fill="#fff1e4"/><rect x="1020.4444444444443" y="291.55555555555554" width="72.88888888888889" height="72.88888888888889" fill="#ffffff"/><rect x="1020.44" y="291.56" width="36.44" height="36.44" fill="#fffaf6"/><path d="M 1020.44 291.56 A 36.44 36.44 0 0 0 1056.88 328 L 1056.88 291.56" fill="#ffdd83"/><rect x="1056.89" y="291.56" width="36.44" height="36.44" fill="#ffdf89"/><path d="M 1056.89 328 A 36.44 36.44 0 0 0 1093.3300000000002 291.56 L 1056.89 291.56" fill="#ffaf64"/><rect x="1020.44" y="328" width="36.44" height="36.44" fill="#fffbf0"/><path d="M 1020.44 364.44 A 36.44 36.44 0 0 1  1056.88 328 L 1056.88 364.44" fill="#ffd975"/><rect x="1056.89" y="328" width="36.44" height="36.44" fill="#ffecda"/><path d="M 1056.89 328 A 36.44 36.44 0 0 1 1093.3300000000002 364.44 L 1056.89 364.44" fill="#fff1cd"/><rect x="1093.33" y="291.56" width="72.89" height="72.89" fill="#ffd668"/><rect x="1093.33" y="291.56" width="72.89" height="72.89" fill="#ffb672"/><rect x="0" y="364.44" width="72.89" height="72.89" fill="#ffbe80"/><path d="M 0 364.44 A 72.89 72.89 0 0 1 72.89 437.33 L 0 437.33" fill="#ffb36b"/><rect x="72.88888888888889" y="364.44444444444446" width="72.88888888888889" height="72.88888888888889" fill="#ffffff"/><rect x="72.89" y="364.44" width="36.44" height="36.44" fill="#ffeab1"/><circle cx="91.11" cy="382.65999999999997" r="18.22" fill="#ffcc9b"/><rect x="109.33" y="364.44" width="36.44" height="36.44" fill="#fff5ec"/><rect x="109.33" y="364.44" width="36.44" height="36.44" fill="#ffbd7e"/><rect x="72.89" y="400.89" width="36.44" height="36.44" fill="#ffd463"/><circle cx="91.11" cy="419.11" r="18.22" fill="#ffeab3"/><rect x="109.33" y="400.89" width="36.44" height="36.44" fill="#ffefc5"/><rect x="109.33" y="400.89" width="36.44" height="36.44" fill="#ffc996"/><rect x="145.78" y="364.44" width="72.89" height="72.89" fill="#ffd4ab"/><rect x="145.78" y="364.44" width="72.89" height="72.89" fill="#ffd872"/><rect x="218.67" y="364.44" width="72.89" height="72.89" fill="#ffeab0"/><rect x="218.67" y="364.44" width="72.89" height="72.89" fill="#fff8f2"/><rect x="291.55555555555554" y="364.44444444444446" width="72.88888888888889" height="72.88888888888889" fill="#ffffff"/><rect x="291.56" y="364.44" width="36.44" height="36.44" fill="#fff6df"/><path d="M 291.56 364.44 A 36.44 36.44 0 0 0 328 400.88 L 328 364.44" fill="#fff0c7"/><rect x="328" y="364.44" width="36.44" height="36.44" fill="#fff4d7"/><path d="M 328 400.88 A 36.44 36.44 0 0 0 364.44 364.44 L 328 364.44" fill="#fffdfb"/><rect x="291.56" y="400.89" width="36.44" height="36.44" fill="#ffad60"/><path d="M 291.56 437.33 A 36.44 36.44 0 0 1  328 400.89 L 328 437.33" fill="#ffc085"/><rect x="328" y="400.89" width="36.44" height="36.44" fill="#ffba79"/><path d="M 328 400.89 A 36.44 36.44 0 0 1 364.44 437.33 L 328 437.33" fill="#fffbf0"/><rect x="364.44" y="364.44" width="72.89" height="72.89" fill="#ffe398"/><rect x="364.44" y="364.44" width="72.89" height="72.89" fill="#ffd76e"/><rect x="437.3333333333333" y="364.44444444444446" width="72.88888888888889" height="72.88888888888889" fill="#ffffff"/><rect x="437.33" y="364.44" width="36.44" height="36.44" fill="#fff7e1"/><polygon points="473.77,364.44 473.77,400.88 437.33,400.88" fill="#ffc691"/><rect x="473.78" y="364.44" width="36.44" height="36.44" fill="#fffbf2"/><polygon points="473.78,364.44 510.21999999999997,364.44 473.78,400.88" fill="#ffd460"/><rect x="437.33" y="400.89" width="36.44" height="36.44" fill="#fff1e4"/><polygon points="437.33,400.89 473.77,400.89 473.77,437.33" fill="#fff3d4"/><rect x="473.78" y="400.89" width="36.44" height="36.44" fill="#ffe9b0"/><polygon points="473.78,400.89 510.21999999999997,437.33 473.78,437.33" fill="#ffddbc"/><rect x="510.22" y="364.44" width="72.89" height="72.89" fill="#ffab5d"/><rect x="510.22" y="364.44" width="72.89" height="72.89" fill="#ffe5a1"/><rect x="583.1111111111111" y="364.44444444444446" width="72.88888888888889" height="72.88888888888889" fill="#ffffff"/><rect x="583.11" y="364.44" width="36.44" height="36.44" fill="#ffc895"/><polygon points="619.55,364.44 619.55,400.88 583.11,400.88" fill="#ffd463"/><rect x="619.56" y="364.44" width="36.44" height="36.44" fill="#ffcea0"/><polygon points="619.56,364.44 656,400.88 619.56,400.88" fill="#ffb774"/><rect x="583.11" y="400.89" width="36.44" height="36.44" fill="#fffaec"/><polygon points="583.11,400.89 619.55,400.89 619.55,437.33" fill="#ffecda"/><rect x="619.56" y="400.89" width="36.44" height="36.44" fill="#fff7ef"/><polygon points="619.56,400.89 656,400.89 619.56,437.33" fill="#ffe7a8"/><rect x="656" y="364.44444444444446" width="72.88888888888889" height="72.88888888888889" fill="#ffffff"/><rect x="656" y="364.44" width="36.44" height="36.44" fill="#ffad5f"/><polygon points="692.44,364.44 692.44,400.88 656,400.88" fill="#ffd5ae"/><rect x="692.44" y="364.44" width="36.44" height="36.44" fill="#ffe1c4"/><polygon points="692.44,364.44 728.8800000000001,400.88 692.44,400.88" fill="#ffdfc2"/><rect x="656" y="400.89" width="36.44" height="36.44" fill="#ffd871"/><polygon points="656,400.89 692.44,400.89 692.44,437.33" fill="#ffeec1"/><rect x="692.44" y="400.89" width="36.44" height="36.44" fill="#ffe49d"/><polygon points="692.44,400.89 728.8800000000001,400.89 692.44,437.33" fill="#fffdfb"/><rect x="728.89" y="364.44" width="72.89" height="72.89" fill="#ffdf8a"/><rect x="728.89" y="364.44" width="72.89" height="72.89" fill="#ffe8a9"/><rect x="801.78" y="364.44" width="72.89" height="72.89" fill="#ffedbc"/><path d="M 801.78 437.33 A 72.89 72.89 0 0 0 874.67 364.44 L 801.78 364.44" fill="#ffd563"/><rect x="874.6666666666666" y="364.44444444444446" width="72.88888888888889" height="72.88888888888889" fill="#ffffff"/><rect x="874.67" y="364.44" width="36.44" height="36.44" fill="#ffd565"/><path d="M 874.67 364.44 A 36.44 36.44 0 0 1 911.1099999999999 400.88 L 874.67 400.88" fill="#ffe2c7"/><rect x="911.11" y="364.44" width="36.44" height="36.44" fill="#fff6de"/><path d="M 911.11 400.88 A 36.44 36.44 0 0 1  947.55 364.44 L 947.55 400.88" fill="#ffd0a4"/><rect x="874.67" y="400.89" width="36.44" height="36.44" fill="#ffd6af"/><path d="M 874.67 437.33 A 36.44 36.44 0 0 0 911.1099999999999 400.89 L 874.67 400.89" fill="#ffab5c"/><rect x="911.11" y="400.89" width="36.44" height="36.44" fill="#ffd7b0"/><path d="M 911.11 400.89 A 36.44 36.44 0 0 0 947.55 437.33 L 947.55 400.89" fill="#ffe8d3"/><rect x="947.56" y="364.44" width="72.89" height="72.89" fill="#fffefb"/><polygon points="947.56,364.44 1020.4499999999999,364.44 1020.4499999999999,437.33" fill="#ffecda"/><rect x="1020.44" y="364.44" width="72.89" height="72.89" fill="#ffdab7"/><rect x="1020.44" y="364.44" width="72.89" height="72.89" fill="#fffcf9"/><rect x="1093.3333333333333" y="364.44444444444446" width="72.88888888888889" height="72.88888888888889" fill="#ffffff"/><rect x="1093.33" y="364.44" width="36.44" height="36.44" fill="#fff0e1"/><path d="M 1093.33 400.88 A 36.44 36.44 0 0 1 1129.77 364.44 L 1129.77 373.55 A 27.33 27.33 0 0 0 1102.4399999999998 400.88" fill="#ffefc5"/><rect x="1129.78" y="364.44" width="36.44" height="36.44" fill="#ffcc9c"/><path d="M 1129.78 364.44 A 36.44 36.44 0 0 1 1166.22 400.88 L 1157.11 400.88 A 27.33 27.33 0 0 0 1129.78 373.55" fill="#ffb773"/><rect x="1093.33" y="400.89" width="36.44" height="36.44" fill="#fff0c9"/><path d="M 1093.33 400.89 A 36.44 36.44 0 0 0 1129.77 437.33 L 1129.77 428.21999999999997 A 27.33 27.33 0 0 1 1102.4399999999998 400.89" fill="#fff1e5"/><rect x="1129.78" y="400.89" width="36.44" height="36.44" fill="#ffd25b"/><path d="M 1129.78 437.33 A 36.44 36.44 0 0 0 1166.22 400.89 L 1157.11 400.89 A 27.33 27.33 0 0 1 1129.78 428.21999999999997" fill="#ffbb7c"/><rect x="0" y="437.3333333333333" width="72.88888888888889" height="72.88888888888889" fill="#ffffff"/><rect x="0" y="437.33" width="36.44" height="36.44" fill="#ffefc3"/><path d="M 0 473.77 A 36.44 36.44 0 0 1  36.44 437.33 L 36.44 473.77" fill="#ffeab2"/><rect x="36.44" y="437.33" width="36.44" height="36.44" fill="#ffe9af"/><path d="M 36.44 437.33 A 36.44 36.44 0 0 1 72.88 473.77 L 36.44 473.77" fill="#ffd460"/><rect x="0" y="473.78" width="36.44" height="36.44" fill="#ffd1a6"/><path d="M 0 473.78 A 36.44 36.44 0 0 0 36.44 510.21999999999997 L 36.44 473.78" fill="#ffe6a4"/><rect x="36.44" y="473.78" width="36.44" height="36.44" fill="#ffeddd"/><path d="M 36.44 510.21999999999997 A 36.44 36.44 0 0 0 72.88 473.78 L 36.44 473.78" fill="#ffdd82"/><rect x="72.88888888888889" y="437.3333333333333" width="72.88888888888889" height="72.88888888888889" fill="#ffffff"/><rect x="72.89" y="437.33" width="36.44" height="36.44" fill="#fff7e1"/><path d="M 72.89 437.33 A 36.44 36.44 0 0 1 109.33 473.77 L 72.89 473.77" fill="#ffe8aa"/><rect x="109.33" y="437.33" width="36.44" height="36.44" fill="#ffab5c"/><path d="M 109.33 473.77 A 36.44 36.44 0 0 1  145.76999999999998 437.33 L 145.76999999999998 473.77" fill="#fff6df"/><rect x="72.89" y="473.78" width="36.44" height="36.44" fill="#ffd1a5"/><path d="M 72.89 510.21999999999997 A 36.44 36.44 0 0 0 109.33 473.78 L 72.89 473.78" fill="#fff0e2"/><rect x="109.33" y="473.78" width="36.44" height="36.44" fill="#fffdf6"/><path d="M 109.33 473.78 A 36.44 36.44 0 0 0 145.76999999999998 510.21999999999997 L 145.76999999999998 473.78" fill="#ffbe80"/><rect x="145.77777777777777" y="437.3333333333333" width="72.88888888888889" height="72.88888888888889" fill="#ffffff"/><rect x="145.78" y="437.33" width="36.44" height="36.44" fill="#ffead7"/><path d="M 145.78 473.77 A 36.44 36.44 0 0 1 182.22 437.33 L 182.22 446.44 A 27.33 27.33 0 0 0 154.89 473.77" fill="#ffad61"/><rect x="182.22" y="437.33" width="36.44" height="36.44" fill="#ffbb7b"/><path d="M 182.22 437.33 A 36.44 36.44 0 0 1 218.66 473.77 L 209.55 473.77 A 27.33 27.33 0 0 0 182.22 446.44" fill="#ffae62"/><rect x="145.78" y="473.78" width="36.44" height="36.44" fill="#ffe0c3"/><path d="M 145.78 473.78 A 36.44 36.44 0 0 0 182.22 510.21999999999997 L 182.22 501.10999999999996 A 27.33 27.33 0 0 1 154.89 473.78" fill="#ffcc9d"/><rect x="182.22" y="473.78" width="36.44" height="36.44" fill="#ffc792"/><path d="M 182.22 510.21999999999997 A 36.44 36.44 0 0 0 218.66 473.78 L 209.55 473.78 A 27.33 27.33 0 0 1 182.22 501.10999999999996" fill="#ffe9b0"/><rect x="218.67" y="437.33" width="72.89" height="72.89" fill="#fffaf5"/><path d="M 218.67 437.33 A 72.89 72.89 0 0 1  291.56 510.21999999999997 L 218.67 437.33 A 72.89 72.89 0 0 0 291.56 510.21999999999997" fill="#ffab5c"/><rect x="291.55555555555554" y="437.3333333333333" width="72.88888888888889" height="72.88888888888889" fill="#ffffff"/><rect x="291.56" y="437.33" width="36.44" height="36.44" fill="#ffc48c"/><polygon points="328,437.33 328,473.77 291.56,473.77" fill="#ffd462"/><rect x="328" y="437.33" width="36.44" height="36.44" fill="#fffdfb"/><polygon points="328,437.33 364.44,437.33 328,473.77" fill="#fff3e8"/><rect x="291.56" y="473.78" width="36.44" height="36.44" fill="#fff6ed"/><polygon points="291.56,473.78 328,473.78 328,510.21999999999997" fill="#fffcf9"/><rect x="328" y="473.78" width="36.44" height="36.44" fill="#ffd461"/><polygon points="328,473.78 364.44,510.21999999999997 328,510.21999999999997" fill="#fff6df"/><rect x="364.44444444444446" y="437.3333333333333" width="72.88888888888889" height="72.88888888888889" fill="#ffffff"/><rect x="364.44" y="437.33" width="36.44" height="36.44" fill="#fff2cf"/><path d="M 364.44 473.77 A 36.44 36.44 0 0 0 400.88 437.33 L 364.44 437.33" fill="#ffefe1"/><rect x="400.89" y="437.33" width="36.44" height="36.44" fill="#ffd974"/><path d="M 400.89 437.33 A 36.44 36.44 0 0 0 437.33 473.77 L 437.33 437.33" fill="#fff8e5"/><rect x="364.44" y="473.78" width="36.44" height="36.44" fill="#ffd461"/><path d="M 364.44 473.78 A 36.44 36.44 0 0 1 400.88 510.21999999999997 L 364.44 510.21999999999997" fill="#ffc690"/><rect x="400.89" y="473.78" width="36.44" height="36.44" fill="#ffedbe"/><path d="M 400.89 510.21999999999997 A 36.44 36.44 0 0 1  437.33 473.78 L 437.33 510.21999999999997" fill="#ffeddc"/><rect x="437.3333333333333" y="437.3333333333333" width="72.88888888888889" height="72.88888888888889" fill="#ffffff"/><rect x="437.33" y="437.33" width="36.44" height="36.44" fill="#fff7ef"/><path d="M 437.33 473.77 A 36.44 36.44 0 0 0 473.77 437.33 L 437.33 437.33" fill="#fffaeb"/><rect x="473.78" y="437.33" width="36.44" height="36.44" fill="#fff2d0"/><path d="M 473.78 437.33 A 36.44 36.44 0 0 0 510.21999999999997 473.77 L 510.21999999999997 437.33" fill="#fff5dc"/><rect x="437.33" y="473.78" width="36.44" height="36.44" fill="#fff8f2"/><path d="M 437.33 473.78 A 36.44 36.44 0 0 1 473.77 510.21999999999997 L 437.33 510.21999999999997" fill="#ffeab1"/><rect x="473.78" y="473.78" width="36.44" height="36.44" fill="#ffd870"/><path d="M 473.78 510.21999999999997 A 36.44 36.44 0 0 1  510.21999999999997 473.78 L 510.21999999999997 510.21999999999997" fill="#ffca97"/><rect x="510.2222222222222" y="437.3333333333333" width="72.88888888888889" height="72.88888888888889" fill="#ffffff"/><rect x="510.22" y="437.33" width="36.44" height="36.44" fill="#ffeab4"/><path d="M 510.22 437.33 A 36.44 36.44 0 0 0 546.6600000000001 473.77 L 546.6600000000001 437.33" fill="#ffe398"/><rect x="546.67" y="437.33" width="36.44" height="36.44" fill="#ffcc9c"/><path d="M 546.67 473.77 A 36.44 36.44 0 0 0 583.1099999999999 437.33 L 546.67 437.33" fill="#ffd4ab"/><rect x="510.22" y="473.78" width="36.44" height="36.44" fill="#fff4d7"/><path d="M 510.22 510.21999999999997 A 36.44 36.44 0 0 1  546.6600000000001 473.78 L 546.6600000000001 510.21999999999997" fill="#ffc894"/><rect x="546.67" y="473.78" width="36.44" height="36.44" fill="#ffd567"/><path d="M 546.67 473.78 A 36.44 36.44 0 0 1 583.1099999999999 510.21999999999997 L 546.67 510.21999999999997" fill="#fff6de"/><rect x="583.11" y="437.33" width="72.89" height="72.89" fill="#ffb671"/><polygon points="583.11,437.33 656,437.33 583.11,510.21999999999997" fill="#fff1e3"/><rect x="656" y="437.33" width="72.89" height="72.89" fill="#ffb46d"/><path d="M 656 510.21999999999997 A 72.89 72.89 0 0 1  728.89 437.33 L 656 510.21999999999997 A 72.89 72.89 0 0 0 728.89 437.33" fill="#fff2d1"/><rect x="728.8888888888889" y="437.3333333333333" width="72.88888888888889" height="72.88888888888889" fill="#ffffff"/><rect x="728.89" y="437.33" width="36.44" height="36.44" fill="#ffe9ad"/><polygon points="765.3299999999999,437.33 765.3299999999999,473.77 728.89,473.77" fill="#fff7f0"/><rect x="765.33" y="437.33" width="36.44" height="36.44" fill="#ffca98"/><polygon points="765.33,437.33 801.77,473.77 765.33,473.77" fill="#ffe8d3"/><rect x="728.89" y="473.78" width="36.44" height="36.44" fill="#ffe9d4"/><polygon points="728.89,473.78 765.3299999999999,473.78 765.3299999999999,510.21999999999997" fill="#ffda76"/><rect x="765.33" y="473.78" width="36.44" height="36.44" fill="#ffd565"/><polygon points="765.33,473.78 801.77,473.78 765.33,510.21999999999997" fill="#ffd76b"/><rect x="801.78" y="437.33" width="72.89" height="72.89" fill="#ffdc80"/><path d="M 801.78 510.21999999999997 A 72.89 72.89 0 0 0 874.67 437.33 L 801.78 437.33" fill="#ffefc3"/><rect x="874.6666666666666" y="437.3333333333333" width="72.88888888888889" height="72.88888888888889" fill="#ffffff"/><rect x="874.67" y="437.33" width="36.44" height="36.44" fill="#ffdb7d"/><path d="M 874.67 473.77 A 36.44 36.44 0 0 0 911.1099999999999 437.33 L 874.67 437.33" fill="#ffb36c"/><rect x="911.11" y="437.33" width="36.44" height="36.44" fill="#ffdbb9"/><path d="M 911.11 437.33 A 36.44 36.44 0 0 0 947.55 473.77 L 947.55 437.33" fill="#ffdfc0"/><rect x="874.67" y="473.78" width="36.44" height="36.44" fill="#ffcfa3"/><path d="M 874.67 473.78 A 36.44 36.44 0 0 1 911.1099999999999 510.21999999999997 L 874.67 510.21999999999997" fill="#ffbf83"/><rect x="911.11" y="473.78" width="36.44" height="36.44" fill="#ffac5f"/><path d="M 911.11 510.21999999999997 A 36.44 36.44 0 0 1  947.55 473.78 L 947.55 510.21999999999997" fill="#ffba78"/><rect x="947.56" y="437.33" width="72.89" height="72.89" fill="#ffd9b6"/><polygon points="947.56,437.33 1020.4499999999999,510.21999999999997 947.56,510.21999999999997" fill="#ffac5f"/><rect x="1020.4444444444443" y="437.3333333333333" width="72.88888888888889" height="72.88888888888889" fill="#ffffff"/><rect x="1020.44" y="437.33" width="36.44" height="36.44" fill="#ffd669"/><circle cx="1038.66" cy="455.54999999999995" r="18.22" fill="#ffeedf"/><rect x="1056.89" y="437.33" width="36.44" height="36.44" fill="#ffcc9c"/><rect x="1056.89" y="437.33" width="36.44" height="36.44" fill="#fff2cf"/><rect x="1020.44" y="473.78" width="36.44" height="36.44" fill="#fff1e5"/><circle cx="1038.66" cy="492" r="18.22" fill="#fff4ea"/><rect x="1056.89" y="473.78" width="36.44" height="36.44" fill="#ffe6a5"/><rect x="1056.89" y="473.78" width="36.44" height="36.44" fill="#ffcb9a"/><rect x="1093.3333333333333" y="437.3333333333333" width="72.88888888888889" height="72.88888888888889" fill="#ffffff"/><rect x="1093.33" y="437.33" width="36.44" height="36.44" fill="#ffe3c8"/><polygon points="1129.77,437.33 1129.77,473.77 1093.33,473.77" fill="#ffc895"/><rect x="1129.78" y="437.33" width="36.44" height="36.44" fill="#ffe49d"/><polygon points="1129.78,437.33 1166.22,473.77 1129.78,473.77" fill="#ffb56f"/><rect x="1093.33" y="473.78" width="36.44" height="36.44" fill="#fffcf5"/><polygon points="1093.33,473.78 1129.77,473.78 1093.33,510.21999999999997" fill="#ffeebf"/><rect x="1129.78" y="473.78" width="36.44" height="36.44" fill="#ffdb7a"/><polygon points="1129.78,473.78 1166.22,473.78 1166.22,510.21999999999997" fill="#fff1cb"/><rect x="0" y="510.2222222222222" width="72.88888888888889" height="72.88888888888889" fill="#ffffff"/><rect x="0" y="510.22" width="36.44" height="36.44" fill="#ffd974"/><polygon points="36.44,510.22 36.44,546.6600000000001 0,546.6600000000001" fill="#fff6ee"/><rect x="36.44" y="510.22" width="36.44" height="36.44" fill="#ffead7"/><polygon points="36.44,510.22 72.88,546.6600000000001 36.44,546.6600000000001" fill="#ffeebf"/><rect x="0" y="546.67" width="36.44" height="36.44" fill="#ffdc7f"/><polygon points="0,546.67 36.44,546.67 0,583.1099999999999" fill="#fff4d8"/><rect x="36.44" y="546.67" width="36.44" height="36.44" fill="#ffcea1"/><polygon points="36.44,546.67 72.88,546.67 72.88,583.1099999999999" fill="#ffdf88"/><rect x="72.89" y="510.22" width="72.89" height="72.89" fill="#ffe397"/><path d="M 72.89 583.11 A 72.89 72.89 0 0 1  145.78 510.22 L 72.89 583.11 A 72.89 72.89 0 0 0 145.78 510.22" fill="#ffb269"/><rect x="145.77777777777777" y="510.2222222222222" width="72.88888888888889" height="72.88888888888889" fill="#ffffff"/><rect x="145.78" y="510.22" width="36.44" height="36.44" fill="#ffd9b5"/><path d="M 145.78 546.6600000000001 A 36.44 36.44 0 0 0 182.22 510.22 L 145.78 510.22" fill="#fff3d3"/><rect x="182.22" y="510.22" width="36.44" height="36.44" fill="#fff3e8"/><path d="M 182.22 510.22 A 36.44 36.44 0 0 0 218.66 546.6600000000001 L 218.66 510.22" fill="#ffc996"/><rect x="145.78" y="546.67" width="36.44" height="36.44" fill="#ffefc5"/><path d="M 145.78 546.67 A 36.44 36.44 0 0 1 182.22 583.1099999999999 L 145.78 583.1099999999999" fill="#ffd872"/><rect x="182.22" y="546.67" width="36.44" height="36.44" fill="#ffbb7b"/><path d="M 182.22 583.1099999999999 A 36.44 36.44 0 0 1  218.66 546.67 L 218.66 583.1099999999999" fill="#ffeede"/><rect x="218.66666666666666" y="510.2222222222222" width="72.88888888888889" height="72.88888888888889" fill="#ffffff"/><rect x="218.67" y="510.22" width="36.44" height="36.44" fill="#ffefe0"/><path d="M 218.67 510.22 A 36.44 36.44 0 0 0 255.10999999999999 546.6600000000001 L 255.10999999999999 510.22" fill="#ffde87"/><rect x="255.11" y="510.22" width="36.44" height="36.44" fill="#fff9ea"/><path d="M 255.11 546.6600000000001 A 36.44 36.44 0 0 0 291.55 510.22 L 255.11 510.22" fill="#ffd8b3"/><rect x="218.67" y="546.67" width="36.44" height="36.44" fill="#fff9f3"/><path d="M 218.67 583.1099999999999 A 36.44 36.44 0 0 1  255.10999999999999 546.67 L 255.10999999999999 583.1099999999999" fill="#fff3d4"/><rect x="255.11" y="546.67" width="36.44" height="36.44" fill="#ffde87"/><path d="M 255.11 546.67 A 36.44 36.44 0 0 1 291.55 583.1099999999999 L 255.11 583.1099999999999" fill="#ffd462"/><rect x="291.56" y="510.22" width="72.89" height="72.89" fill="#ffdfc1"/><path d="M 291.56 510.22 A 72.89 72.89 0 0 0 364.45 583.11 L 364.45 510.22" fill="#ffe5a0"/><rect x="364.44" y="510.22" width="72.89" height="72.89" fill="#ffdb7c"/><path d="M 364.44 583.11 A 72.89 72.89 0 0 1  437.33 510.22 L 364.44 583.11 A 72.89 72.89 0 0 0 437.33 510.22" fill="#fff1cb"/><rect x="437.3333333333333" y="510.2222222222222" width="72.88888888888889" height="72.88888888888889" fill="#ffffff"/><rect x="437.33" y="510.22" width="36.44" height="36.44" fill="#ffe9d4"/><path d="M 437.33 546.6600000000001 A 36.44 36.44 0 0 1 473.77 510.22 L 473.77 519.33 A 27.33 27.33 0 0 0 446.44 546.6600000000001" fill="#fffaeb"/><rect x="473.78" y="510.22" width="36.44" height="36.44" fill="#ffab5c"/><path d="M 473.78 510.22 A 36.44 36.44 0 0 1 510.21999999999997 546.6600000000001 L 501.10999999999996 546.6600000000001 A 27.33 27.33 0 0 0 473.78 519.33" fill="#ffb977"/><rect x="437.33" y="546.67" width="36.44" height="36.44" fill="#ffd86f"/><path d="M 437.33 546.67 A 36.44 36.44 0 0 0 473.77 583.1099999999999 L 473.77 574 A 27.33 27.33 0 0 1 446.44 546.67" fill="#ffdebf"/><rect x="473.78" y="546.67" width="36.44" height="36.44" fill="#ffe49d"/><path d="M 473.78 583.1099999999999 A 36.44 36.44 0 0 0 510.21999999999997 546.67 L 501.10999999999996 546.67 A 27.33 27.33 0 0 1 473.78 574" fill="#ffd7b1"/><rect x="510.22" y="510.22" width="72.89" height="72.89" fill="#fff1cc"/><path d="M 510.22 510.22 A 72.89 72.89 0 0 1 583.11 583.11 L 510.22 583.11" fill="#ffdc7d"/><rect x="583.11" y="510.22" width="72.89" height="72.89" fill="#ffc288"/><polygon points="583.11,510.22 656,510.22 583.11,583.11" fill="#ffd86e"/><rect x="656" y="510.22" width="72.89" height="72.89" fill="#fff2e5"/><polygon points="656,510.22 728.89,510.22 656,583.11" fill="#ffe3ca"/><rect x="728.89" y="510.22" width="72.89" height="72.89" fill="#ffe5a1"/><path d="M 728.89 510.22 A 72.89 72.89 0 0 1  801.78 583.11 L 728.89 510.22 A 72.89 72.89 0 0 0 801.78 583.11" fill="#ffd567"/><rect x="801.78" y="510.22" width="72.89" height="72.89" fill="#ffb46e"/><path d="M 801.78 510.22 A 72.89 72.89 0 0 1  874.67 583.11 L 801.78 510.22 A 72.89 72.89 0 0 0 874.67 583.11" fill="#fff7f0"/><rect x="874.6666666666666" y="510.2222222222222" width="72.88888888888889" height="72.88888888888889" fill="#ffffff"/><rect x="874.67" y="510.22" width="36.44" height="36.44" fill="#fffdf9"/><path d="M 874.67 546.6600000000001 A 36.44 36.44 0 0 1  911.1099999999999 510.22 L 911.1099999999999 546.6600000000001" fill="#fffdf8"/><rect x="911.11" y="510.22" width="36.44" height="36.44" fill="#ffe49c"/><path d="M 911.11 510.22 A 36.44 36.44 0 0 1 947.55 546.6600000000001 L 911.11 546.6600000000001" fill="#ffeddb"/><rect x="874.67" y="546.67" width="36.44" height="36.44" fill="#fffefd"/><path d="M 874.67 546.67 A 36.44 36.44 0 0 0 911.1099999999999 583.1099999999999 L 911.1099999999999 546.67" fill="#ffeec0"/><rect x="911.11" y="546.67" width="36.44" height="36.44" fill="#ffe6a4"/><path d="M 911.11 583.1099999999999 A 36.44 36.44 0 0 0 947.55 546.67 L 911.11 546.67" fill="#fff2d1"/><rect x="947.5555555555555" y="510.2222222222222" width="72.88888888888889" height="72.88888888888889" fill="#ffffff"/><rect x="947.56" y="510.22" width="36.44" height="36.44" fill="#ffe9af"/><path d="M 947.56 546.6600000000001 A 36.44 36.44 0 0 1  984 510.22 L 984 546.6600000000001" fill="#fff5db"/><rect x="984" y="510.22" width="36.44" height="36.44" fill="#ffedbc"/><path d="M 984 510.22 A 36.44 36.44 0 0 1 1020.44 546.6600000000001 L 984 546.6600000000001" fill="#ffdcbb"/><rect x="947.56" y="546.67" width="36.44" height="36.44" fill="#ffedbe"/><path d="M 947.56 546.67 A 36.44 36.44 0 0 0 984 583.1099999999999 L 984 546.67" fill="#ffe3ca"/><rect x="984" y="546.67" width="36.44" height="36.44" fill="#ffda77"/><path d="M 984 583.1099999999999 A 36.44 36.44 0 0 0 1020.44 546.67 L 984 546.67" fill="#ffb875"/><rect x="1020.4444444444443" y="510.2222222222222" width="72.88888888888889" height="72.88888888888889" fill="#ffffff"/><rect x="1020.44" y="510.22" width="36.44" height="36.44" fill="#ffd870"/><path d="M 1020.44 546.6600000000001 A 36.44 36.44 0 0 1  1056.88 510.22 L 1056.88 546.6600000000001" fill="#ffeab1"/><rect x="1056.89" y="510.22" width="36.44" height="36.44" fill="#ffaf64"/><path d="M 1056.89 510.22 A 36.44 36.44 0 0 1 1093.3300000000002 546.6600000000001 L 1056.89 546.6600000000001" fill="#ffcd9e"/><rect x="1020.44" y="546.67" width="36.44" height="36.44" fill="#ffddbe"/><path d="M 1020.44 546.67 A 36.44 36.44 0 0 0 1056.88 583.1099999999999 L 1056.88 546.67" fill="#ffcb99"/><rect x="1056.89" y="546.67" width="36.44" height="36.44" fill="#ffb875"/><path d="M 1056.89 583.1099999999999 A 36.44 36.44 0 0 0 1093.3300000000002 546.67 L 1056.89 546.67" fill="#ffc690"/><rect x="1093.33" y="510.22" width="72.89" height="72.89" fill="#fffefe"/><polygon points="1093.33,510.22 1166.22,510.22 1093.33,583.11" fill="#ffd3aa"/><rect x="0" y="583.11" width="72.89" height="72.89" fill="#fff9f3"/><rect x="0" y="583.11" width="72.89" height="72.89" fill="#fffefc"/><rect x="72.88888888888889" y="583.1111111111111" width="72.88888888888889" height="72.88888888888889" fill="#ffffff"/><rect x="72.89" y="583.11" width="36.44" height="36.44" fill="#fffefc"/><polygon points="109.33,583.11 109.33,619.55 72.89,619.55" fill="#ffdebf"/><rect x="109.33" y="583.11" width="36.44" height="36.44" fill="#fff0ca"/><polygon points="109.33,583.11 145.76999999999998,619.55 109.33,619.55" fill="#ffca98"/><rect x="72.89" y="619.56" width="36.44" height="36.44" fill="#ffd4ac"/><polygon points="72.89,619.56 109.33,619.56 72.89,656" fill="#ffe8d2"/><rect x="109.33" y="619.56" width="36.44" height="36.44" fill="#ffeddc"/><polygon points="109.33,619.56 145.76999999999998,619.56 145.76999999999998,656" fill="#ffefc4"/><rect x="145.78" y="583.11" width="72.89" height="72.89" fill="#ffd7b1"/><rect x="145.78" y="583.11" width="72.89" height="72.89" fill="#ffc289"/><rect x="218.66666666666666" y="583.1111111111111" width="72.88888888888889" height="72.88888888888889" fill="#ffffff"/><rect x="218.67" y="583.11" width="36.44" height="36.44" fill="#ffcd9e"/><path d="M 218.67 619.55 A 36.44 36.44 0 0 0 255.10999999999999 583.11 L 218.67 583.11" fill="#ffecdb"/><rect x="255.11" y="583.11" width="36.44" height="36.44" fill="#ffe7a7"/><path d="M 255.11 583.11 A 36.44 36.44 0 0 0 291.55 619.55 L 291.55 583.11" fill="#fff8e4"/><rect x="218.67" y="619.56" width="36.44" height="36.44" fill="#ffc793"/><path d="M 218.67 619.56 A 36.44 36.44 0 0 1 255.10999999999999 656 L 218.67 656" fill="#ffb167"/><rect x="255.11" y="619.56" width="36.44" height="36.44" fill="#ffcfa2"/><path d="M 255.11 656 A 36.44 36.44 0 0 1  291.55 619.56 L 291.55 656" fill="#ffc691"/><rect x="291.56" y="583.11" width="72.89" height="72.89" fill="#ffedbc"/><rect x="291.56" y="583.11" width="72.89" height="72.89" fill="#ffc792"/><rect x="364.44444444444446" y="583.1111111111111" width="72.88888888888889" height="72.88888888888889" fill="#ffffff"/><rect x="364.44" y="583.11" width="36.44" height="36.44" fill="#ffd565"/><polygon points="400.88,583.11 400.88,619.55 364.44,619.55" fill="#ffb774"/><rect x="400.89" y="583.11" width="36.44" height="36.44" fill="#ffc997"/><polygon points="400.89,583.11 437.33,619.55 400.89,619.55" fill="#ffddbc"/><rect x="364.44" y="619.56" width="36.44" height="36.44" fill="#fff6ed"/><polygon points="364.44,619.56 400.88,619.56 400.88,656" fill="#fff6ee"/><rect x="400.89" y="619.56" width="36.44" height="36.44" fill="#fffbf1"/><polygon points="400.89,619.56 437.33,619.56 400.89,656" fill="#ffe1c5"/><rect x="437.33" y="583.11" width="72.89" height="72.89" fill="#ffe1c4"/><polygon points="510.21999999999997,583.11 510.21999999999997,656 437.33,656" fill="#fff4d7"/><rect x="510.22" y="583.11" width="72.89" height="72.89" fill="#ffd9b5"/><polygon points="510.22,583.11 583.11,583.11 583.11,656" fill="#ffd3aa"/><rect x="583.1111111111111" y="583.1111111111111" width="72.88888888888889" height="72.88888888888889" fill="#ffffff"/><rect x="583.11" y="583.11" width="36.44" height="36.44" fill="#ffedbc"/><polygon points="619.55,583.11 619.55,619.55 583.11,619.55" fill="#ffe6a2"/><rect x="619.56" y="583.11" width="36.44" height="36.44" fill="#ffc289"/><polygon points="619.56,583.11 656,619.55 619.56,619.55" fill="#ffb672"/><rect x="583.11" y="619.56" width="36.44" height="36.44" fill="#ffebd8"/><polygon points="583.11,619.56 619.55,619.56 583.11,656" fill="#ffebd8"/><rect x="619.56" y="619.56" width="36.44" height="36.44" fill="#ffb670"/><polygon points="619.56,619.56 656,619.56 656,656" fill="#ffe9af"/><rect x="656" y="583.11" width="72.89" height="72.89" fill="#fff5ec"/><rect x="656" y="583.11" width="72.89" height="72.89" fill="#ffd76e"/><rect x="728.89" y="583.11" width="72.89" height="72.89" fill="#ffda78"/><path d="M 728.89 656 A 72.89 72.89 0 0 1  801.78 583.11 L 801.78 656" fill="#ffdc7f"/><rect x="801.7777777777777" y="583.1111111111111" width="72.88888888888889" height="72.88888888888889" fill="#ffffff"/><rect x="801.78" y="583.11" width="36.44" height="36.44" fill="#ffd669"/><circle cx="820" cy="601.33" r="18.22" fill="#ffd76b"/><rect x="838.22" y="583.11" width="36.44" height="36.44" fill="#ffefc5"/><rect x="838.22" y="583.11" width="36.44" height="36.44" fill="#ffe39a"/><rect x="801.78" y="619.56" width="36.44" height="36.44" fill="#ffba79"/><circle cx="820" cy="637.78" r="18.22" fill="#fff8f1"/><rect x="838.22" y="619.56" width="36.44" height="36.44" fill="#ffe7a9"/><rect x="838.22" y="619.56" width="36.44" height="36.44" fill="#ffad60"/><rect x="874.67" y="583.11" width="72.89" height="72.89" fill="#fff0c9"/><rect x="874.67" y="583.11" width="72.89" height="72.89" fill="#ffd566"/><rect x="947.56" y="583.11" width="72.89" height="72.89" fill="#ffdd83"/><rect x="947.56" y="583.11" width="72.89" height="72.89" fill="#fff9ea"/><rect x="1020.44" y="583.11" width="72.89" height="72.89" fill="#fffbf1"/><path d="M 1020.44 656 A 72.89 72.89 0 0 1  1093.3300000000002 583.11 L 1093.3300000000002 656" fill="#ffd25a"/><rect x="1093.3333333333333" y="583.1111111111111" width="72.88888888888889" height="72.88888888888889" fill="#ffffff"/><rect x="1093.33" y="583.11" width="36.44" height="36.44" fill="#ffe2c7"/><polygon points="1129.77,583.11 1129.77,619.55 1093.33,619.55" fill="#fff8e5"/><rect x="1129.78" y="583.11" width="36.44" height="36.44" fill="#ffd1a6"/><polygon points="1129.78,583.11 1166.22,619.55 1129.78,619.55" fill="#ffe1c5"/><rect x="1093.33" y="619.56" width="36.44" height="36.44" fill="#ffe9ad"/><polygon points="1093.33,619.56 1129.77,619.56 1093.33,656" fill="#fff1cb"/><rect x="1129.78" y="619.56" width="36.44" height="36.44" fill="#ffdc7d"/><polygon points="1129.78,619.56 1166.22,619.56 1166.22,656" fill="#ffbe80"/></g></svg>