<svg width="159" height="149" viewBox="0 0 159 149" fill="none" xmlns="http://www.w3.org/2000/svg">
<path d="M34.0714 42.9808C34.0714 41.3991 35.3434 40.1154 36.9107 40.1154H53.9464C55.5137 40.1154 56.7857 41.3991 56.7857 42.9808C56.7857 44.5625 55.5137 45.8462 53.9464 45.8462H36.9107C35.3434 45.8462 34.0714 44.5625 34.0714 42.9808ZM36.9107 57.3077H53.9464C55.5137 57.3077 56.7857 56.024 56.7857 54.4423C56.7857 52.8606 55.5137 51.5769 53.9464 51.5769H36.9107C35.3434 51.5769 34.0714 52.8606 34.0714 54.4423C34.0714 56.024 35.3434 57.3077 36.9107 57.3077ZM159 28.6538V131.808C159 141.304 151.374 149 141.964 149H17.0357C7.62632 149 0 141.304 0 131.808V28.6538C0 19.158 7.62632 11.4615 17.0357 11.4615C17.0357 11.4615 19.5797 5.73077 22.7143 5.73077H40.2724C41.4479 2.40119 44.5711 0 48.2679 0C51.9646 0 55.0878 2.40119 56.2633 5.73077H68.1429C71.2774 5.73077 73.8214 8.29815 73.8214 11.4615H141.964C151.374 11.4615 159 19.158 159 28.6538ZM22.7143 68.7692H68.1429V11.4615H56.7857V25.7885C56.7857 30.9003 52.3394 34.9863 47.1492 34.3101C42.8562 33.7542 39.75 29.8573 39.75 25.4905V24.3558C39.75 22.7741 41.022 21.4904 42.5893 21.4904C44.1566 21.4904 45.4286 22.7741 45.4286 24.3558V25.7885C45.4286 27.5249 46.9675 28.906 48.7449 28.6137C50.1418 28.3845 51.1071 27.055 51.1071 25.628V11.4615H22.7143V68.7692ZM153.185 133.195C150.181 135.865 146.28 137.538 141.964 137.538H17.0357C12.72 137.538 8.81882 135.865 5.81486 133.195C6.50196 138.862 11.2322 143.269 17.0357 143.269H141.964C147.768 143.269 152.498 138.862 153.185 133.195ZM153.321 28.6538C153.321 22.3213 148.239 17.1923 141.964 17.1923H73.8214V68.7692C73.8214 71.9326 71.2774 74.5 68.1429 74.5H22.7143C19.5797 74.5 17.0357 71.9326 17.0357 68.7692V17.1923C10.7609 17.1923 5.67857 22.3213 5.67857 28.6538V120.346C5.67857 126.679 10.7609 131.808 17.0357 131.808H141.964C148.239 131.808 153.321 126.679 153.321 120.346V28.6538ZM140.21 63.2562C139.863 63.113 139.494 63.0385 139.125 63.0385H116.411C114.843 63.0385 113.571 64.3222 113.571 65.9038C113.571 67.4855 114.843 68.7692 116.411 68.7692H132.271L115.235 85.9615H106.229L95.701 75.3367C94.5936 74.2192 92.7935 74.2192 91.6862 75.3367L75.4852 91.6923H53.9464C53.1912 91.6923 52.47 91.996 51.9362 92.529L35.7352 108.885H19.875C18.3077 108.885 17.0357 110.168 17.0357 111.75C17.0357 113.332 18.3077 114.615 19.875 114.615H36.9107C37.666 114.615 38.3871 114.312 38.9209 113.779L55.1219 97.4231H76.6607C77.416 97.4231 78.1371 97.1193 78.6709 96.5864L93.6964 81.4228L103.043 90.8556C103.577 91.3886 104.298 91.6923 105.054 91.6923H116.411C117.166 91.6923 117.887 91.3886 118.421 90.8556L136.286 72.8209V88.8269C136.286 90.4086 137.558 91.6923 139.125 91.6923C140.692 91.6923 141.964 90.4086 141.964 88.8269V65.9038C141.964 65.5313 141.89 65.1588 141.748 64.8093C141.459 64.1101 140.902 63.5485 140.21 63.2562Z" fill="#FFAA5A"/>
</svg>
