<svg width="25" height="28" viewBox="0 0 25 28" fill="none" xmlns="http://www.w3.org/2000/svg">
<rect x="5" width="20" height="28" rx="2" fill="white"/>
<path d="M5 21H15V28H7C5.89543 28 5 27.1046 5 26V21Z" fill="#001C44"/>
<path d="M15 21H25V26C25 27.1046 24.1046 28 23 28H15V21Z" fill="#001C44"/>
<rect x="15" y="14" width="10" height="7" fill="#0A3C82"/>
<rect x="5" y="14" width="10" height="7" fill="#001C44"/>
<rect x="15" y="7" width="10" height="7" fill="#1556B1"/>
<rect x="5" y="7" width="10" height="7" fill="#0A3C82"/>
<path d="M15 0H23C24.1046 0 25 0.895431 25 2V7H15V0Z" fill="#2771DB"/>
<path d="M5 2C5 0.89543 5.89543 0 7 0H15V7H5V2Z" fill="#1556B1"/>
<rect y="5" width="13" height="18" rx="2" fill="#0069FF"/>
<path d="M5 12L7 9L8 13L9 14V19L7 21L5 19V12Z" fill="white"/>
<circle cx="7" cy="8" r="1" fill="white"/>
</svg>
